<svg width="48" height="48" viewBox="0 0 48 48" fill="none" xmlns="http://www.w3.org/2000/svg">
<g clip-path="url(#clip0_8350_60502)">
<rect width="48" height="48" rx="24" fill="#FE6A16"/>
<path d="M33.8393 8.99937L15.7244 8.36719L10.8508 11.0339L9.2876 37.1488L22.5002 50.9994H25.5002H42.0002L49.5002 45.7494L48.7502 23.2494L33.8393 8.99937Z" fill="url(#paint0_linear_8350_60502)"/>
<path d="M38.808 30.6964L38.6556 35.0118C38.5893 36.889 37.0085 38.1942 35.3198 38.1346C29.1049 37.915 23.1455 34.7628 18.7946 30.1119C14.4436 25.461 11.7011 19.3114 11.9206 13.0965C11.9837 11.3113 13.4866 9.92629 15.271 9.98933L19.5864 10.1418C20.051 10.1582 20.4526 10.4698 20.5831 10.9151L22.5127 17.4493C22.6072 17.7695 22.5482 18.1146 22.3543 18.385L20.4276 21.0656C21.0696 22.5444 22.2405 24.1773 23.6079 25.627C24.9761 27.076 26.5409 28.3418 27.9707 29.0865L30.7807 27.3537C31.0655 27.1802 31.4124 27.1442 31.7251 27.2618L38.122 29.6481C38.557 29.8097 38.8244 30.2318 38.808 30.6964Z" fill="#FCF2A4"/>
<path d="M38.8085 30.6985L38.656 35.0139C38.5897 36.8911 37.009 38.1963 35.3202 38.1367C29.1053 37.9172 23.1459 34.7649 18.795 30.114L23.6084 25.6291C24.9766 27.0781 26.5413 28.3439 27.9711 29.0886L30.7811 27.3558C31.0659 27.1823 31.4129 27.1463 31.7256 27.2639L38.1225 29.6502C38.5575 29.8118 38.8249 30.2339 38.8085 30.6985Z" fill="#FFEC5F"/>
<path fill-rule="evenodd" clip-rule="evenodd" d="M16.8704 36.832L14.4861 35.625L13.2791 33.2406C13.1145 32.9183 12.9956 32.9206 12.831 33.2429L11.624 35.625L9.24198 36.832C8.91966 36.9943 8.91966 37.1155 9.24198 37.2801L11.624 38.4871L12.8333 40.8715C12.9956 41.1938 13.1168 41.1915 13.2791 40.8692L14.4861 38.4871L16.8681 37.28C17.1904 37.1177 17.1927 36.9966 16.8704 36.832Z" fill="#F5F5F5"/>
<path fill-rule="evenodd" clip-rule="evenodd" d="M16.8704 36.832L14.4861 35.625L13.2791 33.2406C13.1145 32.9183 12.9956 32.9206 12.831 33.2429L12.6938 33.5172C12.9408 34.5802 13.0802 35.7919 13.0802 37.0766C13.0802 38.3499 12.943 39.5501 12.6984 40.6086L12.8333 40.8715C12.9956 41.1938 13.1168 41.1915 13.2791 40.8692L14.4861 38.4871L16.8681 37.28C17.1904 37.1177 17.1927 36.9966 16.8704 36.832Z" fill="#F5F5F5"/>
<path fill-rule="evenodd" clip-rule="evenodd" d="M38.6871 13.96L35.601 12.3977L34.0386 9.31143C33.8256 8.89423 33.6717 8.89718 33.4587 9.31438L31.8964 12.3977L28.8131 13.96C28.3959 14.1701 28.3959 14.3269 28.8131 14.5401L31.8964 16.1024L33.4617 19.1886C33.6717 19.6058 33.8285 19.6028 34.0386 19.1856L35.601 16.1023L38.6842 14.54C39.1014 14.3299 39.1043 14.1731 38.6871 13.96Z" fill="#F5F5F5"/>
<path fill-rule="evenodd" clip-rule="evenodd" d="M38.687 13.96L35.6008 12.3977L34.0385 9.31143C33.8255 8.89423 33.6716 8.89718 33.4586 9.31438L33.281 9.66944C33.6006 11.0453 33.781 12.6137 33.781 14.2766C33.781 15.9247 33.6035 17.4782 33.2869 18.8483L33.4615 19.1886C33.6716 19.6058 33.8284 19.6028 34.0385 19.1856L35.6008 16.1023L38.6841 14.54C39.1013 14.3299 39.1042 14.1731 38.687 13.96Z" fill="#F5F5F5"/>
</g>
<defs>
<linearGradient id="paint0_linear_8350_60502" x1="45.0577" y1="43.7695" x2="11.5865" y2="4.41316" gradientUnits="userSpaceOnUse">
<stop stop-color="#E53D03"/>
<stop offset="1" stop-color="#E65604" stop-opacity="0"/>
</linearGradient>
<clipPath id="clip0_8350_60502">
<rect width="48" height="48" rx="24" fill="white"/>
</clipPath>
</defs>
</svg>
