<svg width="24" height="24" viewBox="0 0 24 24" fill="none" xmlns="http://www.w3.org/2000/svg">
<g clip-path="url(#clip0_4375_3899)">
<circle cx="12" cy="12" r="12" fill="#00B464"/>
<g clip-path="url(#clip1_4375_3899)">
<path d="M8.5875 7.625C8.625 8.18125 8.71875 8.725 8.86875 9.24375L8.11875 9.99375C7.8625 9.24375 7.7 8.45 7.64375 7.625H8.5875ZM14.75 15.1375C15.2812 15.2875 15.825 15.3812 16.375 15.4187V16.35C15.55 16.2937 14.7562 16.1312 14 15.8812L14.75 15.1375ZM9.1875 6.375H7C6.65625 6.375 6.375 6.65625 6.375 7C6.375 12.8688 11.1312 17.625 17 17.625C17.3438 17.625 17.625 17.3438 17.625 17V14.8188C17.625 14.475 17.3438 14.1938 17 14.1938C16.225 14.1938 15.4688 14.0687 14.7688 13.8375C14.7063 13.8125 14.6375 13.8063 14.575 13.8063C14.4125 13.8063 14.2562 13.8688 14.1312 13.9875L12.7563 15.3625C10.9875 14.4562 9.5375 13.0125 8.6375 11.2437L10.0125 9.86875C10.1875 9.69375 10.2375 9.45 10.1687 9.23125C9.9375 8.53125 9.8125 7.78125 9.8125 7C9.8125 6.65625 9.53125 6.375 9.1875 6.375Z" fill="white"/>
</g>
</g>
<defs>
<clipPath id="clip0_4375_3899">
<rect width="24" height="24" fill="white"/>
</clipPath>
<clipPath id="clip1_4375_3899">
<rect width="15" height="15" fill="white" transform="translate(4.5 4.5)"/>
</clipPath>
</defs>
</svg>
