<svg width="48" height="48" viewBox="0 0 48 48" fill="none" xmlns="http://www.w3.org/2000/svg">
<g clip-path="url(#clip0_8311_44483)">
<circle cx="24" cy="24" r="24" fill="#D9D9D9"/>
<mask id="mask0_8311_44483" style="mask-type:alpha" maskUnits="userSpaceOnUse" x="0" y="0" width="48" height="48">
<circle cx="24" cy="24" r="24" fill="#D9D9D9"/>
</mask>
<g mask="url(#mask0_8311_44483)">
<rect x="0.191895" y="-0.191406" width="47.424" height="47.424" rx="5.928" fill="url(#paint0_linear_8311_44483)"/>
<mask id="mask1_8311_44483" style="mask-type:alpha" maskUnits="userSpaceOnUse" x="0" y="-1" width="48" height="49">
<rect x="0.191895" y="-0.191406" width="47.424" height="47.424" rx="5.928" fill="#F94836"/>
</mask>
<g mask="url(#mask1_8311_44483)">
<path d="M49.7553 41.1696L53.8093 29.5358L52.2167 22.6346L31.6899 7.0625L33.7095 30.6508L14.5438 36.6233L1.61812 45.0028H0.370117L2.59869 48.6576L9.99755 50.7079H37.8993L47.9724 48.2119L49.7553 41.1696Z" fill="#FFB32D"/>
<path d="M1.48335 36.9083L-1.93156 38.3833L1.83288 49.7874L9.96708 49.5667L1.48335 36.9083Z" fill="#C3550F"/>
<path d="M7.13562 37.2155L5.49531 34.7637L1.4834 36.9077L9.96713 49.566L13.979 47.4221L12.6077 45.3836L7.13562 37.2155Z" fill="#EDF4FA"/>
<path d="M3.47213 46.3512C3.70953 46.3447 3.94107 46.2759 4.14356 46.1518C4.34605 46.0277 4.51241 45.8526 4.62598 45.644C4.73955 45.4354 4.79636 45.2007 4.79072 44.9633C4.78508 44.7258 4.71718 44.4941 4.59384 44.2911L0.191901 37.4985L1.48335 36.9083L9.96708 49.5667L1.83288 49.7874L1.7409 46.3982L3.47213 46.3512Z" fill="#A14206"/>
<path d="M29.2564 35.4767C29.2564 35.4767 35.1914 30.4586 37.8971 28.1738C38.1003 28.0029 38.3161 27.8474 38.5424 27.7086L38.5389 27.5798C38.529 27.4201 38.4877 27.2639 38.4173 27.1202C38.3469 26.9765 38.2489 26.8481 38.1288 26.7424C38.0087 26.6366 37.869 26.5556 37.7175 26.5039C37.5661 26.4523 37.406 26.431 37.2463 26.4413L37.1514 26.4439C36.4267 26.4602 35.7229 26.6892 35.1274 27.1026C35.0943 27.1306 35.0542 27.152 35.021 27.1801L29.4713 31.1498C29.5895 31.2275 29.7009 31.3153 29.804 31.4121C30.0317 31.6248 30.2147 31.8807 30.3424 32.165C30.47 32.4492 30.5398 32.756 30.5477 33.0674C30.5647 33.6967 30.3312 34.3069 29.8983 34.7639C29.4655 35.2209 28.8688 35.4872 28.2396 35.5043L29.2564 35.4767Z" fill="#FEB589"/>
<path d="M30.5477 33.0666C30.5398 32.7551 30.4701 32.4484 30.3424 32.1641C30.2147 31.8799 30.0317 31.624 29.8041 31.4113C29.7009 31.3145 29.5896 31.2267 29.4713 31.149L29.9551 30.8028C30.4032 31.1099 30.9332 31.2751 31.4764 31.2771C32.0197 31.279 32.5509 31.1176 33.0012 30.8137L37.8247 27.557C37.9645 27.4611 38.0626 27.3156 38.0988 27.15C38.135 26.9844 38.1067 26.8112 38.0196 26.6658C38.1731 26.7652 38.3004 26.9 38.3908 27.059C38.4811 27.2179 38.532 27.3963 38.5389 27.579L38.5424 27.7078C38.3161 27.8466 38.1003 28.0021 37.8971 28.173C35.1914 30.4578 29.2564 35.4759 29.2564 35.4759L28.2396 35.5035C28.8688 35.4864 29.4655 35.2201 29.8983 34.7631C30.3312 34.3061 30.5648 33.6958 30.5477 33.0666Z" fill="#EDA377"/>
<path d="M34.7105 26.2348C34.5827 26.1108 34.4313 26.0137 34.2652 25.9495C34.0992 25.8852 33.9218 25.8551 33.7439 25.8608C32.8581 25.8839 31.9972 26.159 31.2623 26.654L25.0606 30.845L28.1109 30.7622C28.594 30.7471 29.0698 30.8836 29.4714 31.1526L35.0211 27.1829C35.0543 27.1548 35.0944 27.1334 35.1275 27.1054C35.1041 26.7728 34.955 26.4615 34.7105 26.2348V26.2348Z" fill="#FEB589"/>
<path d="M28.0211 30.0849C28.7348 30.0663 29.4311 29.8602 30.04 29.4874L33.4609 27.3887C33.7183 27.25 33.9236 27.0315 34.0458 26.7659C34.1681 26.5004 34.2007 26.2023 34.1386 25.9166C34.4068 25.989 34.6459 26.1427 34.8231 26.3565C35.0003 26.5704 35.1069 26.8339 35.1282 27.1108C35.095 27.1388 35.0549 27.1602 35.0218 27.1883L29.4721 31.158C29.0712 30.8866 28.5953 30.7476 28.1114 30.7608L25.0611 30.8436L26.1069 30.1368L28.0211 30.0849Z" fill="#EDA377"/>
<path d="M24.0808 4.53516C16.1701 4.53516 9.74744 11.8635 9.74744 20.9021C9.74744 29.9406 16.1701 37.2678 24.0808 37.2678C31.9916 37.2678 38.4142 29.9406 38.4142 20.9021C38.4142 11.8635 31.9964 4.53516 24.0808 4.53516Z" fill="#864327"/>
<path d="M24.0597 37.3157C23.9021 37.2947 23.7462 37.2624 23.5932 37.2191C23.4393 37.1781 23.2963 37.1189 23.1448 37.067C22.8523 36.9521 22.5688 36.8157 22.2965 36.6591C22.162 36.5783 22.0215 36.501 21.8906 36.4177C21.7597 36.3345 21.6228 36.2319 21.5016 36.1401C21.4374 36.0943 21.3719 36.0484 21.3101 36.0001L21.1259 35.8469C21.0047 35.7443 20.8836 35.6429 20.7624 35.5367C19.8457 34.6719 19.0846 33.6571 18.512 32.5363L18.1073 31.6915C17.997 31.4006 17.8843 31.1122 17.7837 30.8189L17.631 30.3808C17.5838 30.2335 17.5523 30.0814 17.5099 29.933C17.4335 29.6337 17.3657 29.3295 17.3002 29.0338C17.2651 28.8844 17.2396 28.7328 17.2239 28.58C17.2045 28.4268 17.1839 28.2759 17.1681 28.1226C17.133 27.8185 17.1063 27.5131 17.0845 27.209C17.0627 26.9049 17.0845 26.5947 17.1003 26.2869L17.1257 25.8283C17.1427 25.6738 17.1512 25.5217 17.1742 25.3685L17.2784 25.3516L17.6419 27.0847L17.8758 27.9416L17.9885 28.3688L18.0455 28.5825C18.0649 28.6537 18.0915 28.7213 18.1146 28.7925L18.3981 29.6313C18.4466 29.7701 18.4902 29.9113 18.5423 30.0477L18.7144 30.4532L19.0574 31.2666L19.4536 32.0547C19.9856 33.104 20.6405 34.0869 21.4046 34.9827C21.7894 35.4276 22.2083 35.8421 22.6577 36.2222C23.0968 36.6116 23.5819 36.9463 24.1021 37.2191L24.0597 37.3157Z" fill="#6E3620"/>
<path d="M21.0609 23.3772C21.2488 24.6263 21.3724 25.8248 21.5093 27.01C21.6462 28.1952 21.7904 29.3538 21.9722 30.5004C22.0195 30.7852 22.0655 31.0725 22.1237 31.3549C22.1819 31.6373 22.2449 31.9197 22.2897 32.1997C22.4109 32.7633 22.5527 33.3197 22.7066 33.8785C22.8605 34.4373 23.0495 34.9841 23.2531 35.5417C23.3634 35.8144 23.4676 36.0968 23.59 36.3744C23.6482 36.5156 23.7112 36.6593 23.7742 36.7956C23.8372 36.932 23.9051 37.0781 23.9644 37.2277L23.8857 37.2977C23.473 36.8424 23.0993 36.3535 22.7684 35.8361C22.4499 35.3107 22.1693 34.7634 21.9286 34.1984C21.6958 33.6305 21.496 33.0498 21.3299 32.4592C21.1684 31.8678 21.0363 31.2696 20.9337 30.6645C20.7477 29.4545 20.6581 28.2317 20.6659 27.0076C20.6659 26.3957 20.6901 25.785 20.7349 25.1755C20.7798 24.566 20.8561 23.9601 20.9579 23.3555L21.0609 23.3772Z" fill="#6E3620"/>
<path d="M12.2075 24.5917C12.262 24.7848 12.3117 24.9779 12.3735 25.1674C12.4353 25.3569 12.485 25.5464 12.5468 25.7334L12.7285 26.291C12.7952 26.4745 12.8497 26.6591 12.9285 26.839C12.9636 26.9295 12.9927 27.0212 13.0254 27.1105L13.1284 27.3797C13.1951 27.5595 13.2726 27.7357 13.3478 27.9107C13.4229 28.0857 13.5017 28.2595 13.5756 28.4333C13.6495 28.6071 13.7404 28.7736 13.818 28.945C14.4485 30.277 15.2644 31.5138 16.2416 32.6189C17.2306 33.7032 18.3866 34.624 19.6662 35.3465C20.9677 36.0911 22.4037 36.6596 23.9269 37.216L23.9148 37.3198C23.5222 37.263 23.1259 37.2184 22.7345 37.1508L22.1492 37.0301L21.8559 36.971C21.759 36.948 21.6633 36.9203 21.5675 36.8949L20.9907 36.7356C20.7992 36.6837 20.6138 36.6077 20.4248 36.5461L20.1424 36.4472L20.0006 36.3977L19.8637 36.3386L19.3135 36.0972C17.853 35.4374 16.542 34.4894 15.46 33.3104C14.4017 32.1126 13.5754 30.7299 13.023 29.2323C12.4578 27.744 12.1453 26.1725 12.0984 24.582L12.2075 24.5917Z" fill="#6E3620"/>
<path d="M23.7657 37.2196C24.1424 37.024 24.4987 36.7919 24.8297 36.5268L25.0806 36.3313L25.3229 36.1237C25.4877 35.9897 25.6356 35.8364 25.7907 35.6916C26.394 35.0928 26.9382 34.4376 27.4157 33.7352L27.7708 33.2054C27.892 33.0292 27.9889 32.8433 28.098 32.6586C28.3234 32.2966 28.5052 31.9116 28.7039 31.5326C28.8057 31.3455 28.8833 31.1464 28.9693 30.9521L29.2238 30.3655C29.3825 29.9709 29.5291 29.5702 29.6818 29.1719L29.7824 29.2033C29.7957 29.3239 29.7958 29.4338 29.8018 29.5496V29.8924C29.8018 30.1217 29.7873 30.349 29.7582 30.5743C29.723 30.7952 29.6831 31.0172 29.637 31.2381C29.6164 31.3491 29.5885 31.459 29.5631 31.5688C29.5388 31.6785 29.5076 31.7865 29.4698 31.8923C29.3387 32.3246 29.1725 32.7456 28.9729 33.1511C28.9257 33.2536 28.8711 33.3538 28.8202 33.454C28.7693 33.5542 28.7184 33.6568 28.6579 33.7533L28.2943 34.329C27.7731 35.0861 27.1284 35.751 26.3869 36.2963C26.2948 36.3651 26.1967 36.4278 26.1009 36.4918C26.0053 36.5571 25.9062 36.6171 25.804 36.6716C25.7022 36.7283 25.6029 36.7863 25.4999 36.8382C25.3969 36.8901 25.2878 36.9371 25.1811 36.983C25.0747 37.0289 24.9659 37.0692 24.8552 37.1037C24.7453 37.1441 24.6332 37.1783 24.5195 37.2063C24.3983 37.2328 24.2929 37.263 24.1753 37.2811C24.0576 37.3009 23.9385 37.3122 23.8191 37.3149L23.7657 37.2196Z" fill="#6E3620"/>
<path d="M26.2427 26.3516C26.2936 26.8247 26.319 27.2966 26.3336 27.7709C26.3481 28.2452 26.3336 28.7183 26.3166 29.1914C26.2811 30.1392 26.1848 31.0837 26.0282 32.0192C25.8612 32.9548 25.6147 33.8745 25.2914 34.7686C25.1266 35.2145 24.9377 35.6512 24.7255 36.0769C24.505 36.4986 24.2581 36.9061 23.9863 37.297L23.899 37.2379C23.9196 37.11 23.9512 36.9965 23.9766 36.8758C24.0021 36.7551 24.0336 36.6344 24.0578 36.5222L24.2141 35.8319C24.3111 35.3756 24.4104 34.9339 24.4977 34.4898C24.6758 33.6063 24.8334 32.7289 24.9921 31.8442C25.1509 30.9595 25.3035 30.0664 25.4768 29.1588C25.6497 28.2181 25.8705 27.2868 26.1385 26.3685L26.2427 26.3516Z" fill="#6E3620"/>
<path d="M35.7659 24.5898C35.7226 26.1901 35.4224 27.773 34.8765 29.2787C34.3446 30.7946 33.5343 32.1988 32.4868 33.4196C31.9484 34.0167 31.3494 34.5567 30.6993 35.0308L30.2013 35.3724C30.0328 35.481 29.8559 35.5764 29.6838 35.6802C29.5966 35.7296 29.5105 35.7827 29.4221 35.8298L29.1518 35.9626C28.9701 36.0495 28.7883 36.1448 28.6089 36.2233C28.2345 36.3693 27.8673 36.5359 27.482 36.6469C27.2893 36.706 27.1002 36.7736 26.9076 36.8255L26.3222 36.9691L26.0302 37.0391L25.7333 37.0886L25.1407 37.1888C25.0426 37.2081 24.9432 37.2178 24.8426 37.2274L24.5445 37.2576L23.9471 37.3191L23.9386 37.2141C25.4921 36.7109 26.95 36.1786 28.266 35.4557C28.9099 35.0947 29.5249 34.6847 30.1055 34.2294C30.1807 34.1751 30.2485 34.1088 30.3176 34.0556L30.526 33.8782L30.7345 33.7008L30.9296 33.5101C31.201 33.2687 31.4458 32.9948 31.6918 32.728C32.6624 31.6029 33.4667 30.3455 34.0803 28.9939C34.408 28.2981 34.6993 27.5859 34.9528 26.86C35.2218 26.1262 35.4375 25.3695 35.6605 24.5898H35.7659Z" fill="#6E3620"/>
<path d="M23.8045 4.40625C23.941 4.41804 24.0766 4.4386 24.2105 4.4678C24.345 4.49677 24.471 4.54022 24.6031 4.57763C24.7328 4.61744 24.8602 4.66418 24.9848 4.71763C25.1088 4.76731 25.2302 4.8233 25.3484 4.88539C25.4696 4.94695 25.5907 5.00608 25.7119 5.07488C25.8331 5.14367 25.9397 5.21609 26.0549 5.2885C26.1118 5.32471 26.17 5.35971 26.2257 5.39833C26.2815 5.43695 26.3336 5.47799 26.3869 5.51902C26.4948 5.59989 26.6026 5.68075 26.708 5.7604C27.5363 6.44945 28.2419 7.27288 28.7948 8.19595C28.9245 8.42768 29.0565 8.6582 29.1838 8.89234C29.2468 9.01303 29.2941 9.13372 29.351 9.25441C29.408 9.3751 29.4589 9.49579 29.5085 9.61649C29.6162 9.85732 29.7093 10.1044 29.7873 10.3563C29.8672 10.6074 29.94 10.8596 30.009 11.1131C30.0471 11.2385 30.0766 11.3663 30.0975 11.4956C30.1217 11.6248 30.1472 11.7539 30.1666 11.8831C30.2102 12.1413 30.2453 12.4008 30.2768 12.6603C30.3083 12.9198 30.3023 13.1865 30.2987 13.4508L30.2914 13.8455C30.2817 13.9783 30.2781 14.1098 30.2611 14.2426L30.1593 14.2679C30.0163 13.7852 29.8806 13.3024 29.7339 12.8281L29.4855 12.1196L29.3643 11.766C29.3437 11.7081 29.3244 11.6453 29.3013 11.5898L29.2286 11.4172C29.0287 10.9598 28.8542 10.4903 28.6167 10.051C28.5015 9.8289 28.3961 9.602 28.2749 9.38476L27.8956 8.73906C27.3868 7.88119 26.7871 7.08005 26.107 6.34938C25.9301 6.17317 25.7652 5.9873 25.575 5.82316L25.2987 5.57213C25.2042 5.49006 25.1048 5.41523 25.0091 5.33074C24.626 5.01171 24.2091 4.7353 23.7657 4.50642L23.8045 4.40625Z" fill="#6E3620"/>
<path d="M26.8057 18.3472C26.6179 17.0969 26.4943 15.8984 26.3574 14.7144C26.2204 13.5304 26.0762 12.3706 25.8945 11.224C25.8484 10.938 25.8024 10.652 25.7442 10.3695C25.686 10.0871 25.6291 9.8047 25.577 9.5247C25.4558 8.96227 25.314 8.40468 25.1613 7.84709C25.0086 7.2895 24.8172 6.74156 24.6136 6.18397C24.5033 5.91 24.3991 5.62758 24.2779 5.34999C24.2197 5.20999 24.1567 5.06516 24.0925 4.92998C24.0283 4.79481 23.9628 4.64636 23.9034 4.49188L23.9822 4.42188C24.3945 4.87794 24.7682 5.3672 25.0995 5.88465C25.418 6.40989 25.6983 6.95722 25.9381 7.52243C26.1712 8.08986 26.3715 8.67013 26.5379 9.26038C26.6995 9.85338 26.8312 10.4516 26.933 11.0551C27.1178 12.2656 27.2061 13.4888 27.1972 14.7132C27.1972 15.3239 27.1737 15.9342 27.1269 16.5441C27.0748 17.1475 27.0057 17.7607 26.9051 18.3653L26.8057 18.3472Z" fill="#6E3620"/>
<path d="M35.661 17.1355C35.6064 16.9424 35.5556 16.7493 35.4937 16.5598C35.4319 16.3704 35.3835 16.1797 35.3168 15.9926L35.1351 15.4338C35.0684 15.2503 35.0139 15.0717 34.9363 14.8859C34.9012 14.7965 34.8709 14.7048 34.8382 14.6143L34.7352 14.3452C34.6685 14.1653 34.5922 13.9903 34.517 13.8141C34.4419 13.6379 34.3631 13.4665 34.288 13.2927C34.2129 13.1189 34.1244 12.9524 34.0456 12.781C33.4142 11.4514 32.5984 10.2167 31.622 9.1132C30.6326 8.02917 29.4767 7.1085 28.1974 6.38558C26.8971 5.63609 25.4611 5.06643 23.9366 4.51004L23.9488 4.40625C24.3426 4.46297 24.7377 4.50763 25.1303 4.57522L25.7156 4.69591L26.0076 4.75505C26.1046 4.77798 26.2003 4.80574 26.2973 4.83108L26.8729 4.98919C27.0656 5.04229 27.251 5.11712 27.44 5.17988L27.7224 5.27885L27.8629 5.32833L28.0011 5.38747L28.55 5.62161C30.0118 6.28059 31.3244 7.22776 32.4085 8.40595C33.4665 9.60415 34.2931 10.9867 34.8466 12.4841C35.4108 13.973 35.7232 15.5448 35.7713 17.1355H35.661Z" fill="#6E3620"/>
<path d="M24.1014 4.50642C23.7011 4.71601 23.3231 4.96551 22.9732 5.25109C22.886 5.32109 22.7951 5.38868 22.7079 5.46109L22.4534 5.68437C22.2789 5.8292 22.1238 5.99455 21.9602 6.15024C21.3275 6.79834 20.7616 7.50792 20.2709 8.26837L19.9073 8.84044C19.7862 9.03234 19.6856 9.2351 19.5729 9.43183C19.3426 9.82166 19.1633 10.238 18.967 10.646C18.864 10.8475 18.7888 11.0612 18.7028 11.2712L18.4495 11.9012C18.2944 12.3272 18.1502 12.7581 18.0012 13.1865L17.8994 13.1576C17.8848 13.0369 17.8836 12.9162 17.8763 12.7955V12.4334C17.8763 12.192 17.8897 11.9507 17.9139 11.7093C17.9381 11.4679 17.9854 11.2374 18.0351 11.0032C18.0557 10.8825 18.0824 10.7691 18.1078 10.652C18.1316 10.5349 18.1624 10.4192 18.1999 10.3056C18.329 9.84365 18.4943 9.39249 18.6943 8.95631C18.7416 8.84648 18.7973 8.74027 18.8494 8.63165C18.9015 8.52302 18.9524 8.4132 19.0142 8.31061L19.3911 7.69146C19.9253 6.87498 20.5929 6.15333 21.3664 5.55644C21.4645 5.48161 21.5663 5.41281 21.6657 5.34281C21.7653 5.27072 21.8689 5.20424 21.9759 5.14367C22.0838 5.08212 22.188 5.02298 22.2958 4.96022C22.4037 4.89746 22.5176 4.8516 22.6291 4.7997C22.7405 4.74675 22.8545 4.69962 22.9708 4.65849C23.0862 4.61211 23.2039 4.57182 23.3235 4.5378C23.4446 4.50763 23.5658 4.47263 23.687 4.4497C23.8103 4.42719 23.935 4.41268 24.0602 4.40625L24.1014 4.50642Z" fill="#6E3620"/>
<path d="M21.6229 15.374C21.5744 14.9069 21.549 14.4241 21.5344 13.9558C21.5199 13.4876 21.5344 13.0084 21.5502 12.5353C21.5867 11.5872 21.6835 10.6423 21.8398 9.7063C22.0063 8.77101 22.2528 7.85161 22.5766 6.95817C22.7405 6.51165 22.929 6.07448 23.1413 5.64867C23.3623 5.22759 23.6092 4.82048 23.8805 4.42969L23.9678 4.48883C23.9472 4.61676 23.9157 4.73021 23.8914 4.8509C23.8672 4.97159 23.8345 5.09228 23.809 5.20573L23.6539 5.89608C23.557 6.3523 23.4564 6.79403 23.3703 7.23696C23.191 8.12163 23.0347 8.99785 22.8759 9.88372C22.7172 10.7696 22.5633 11.6603 22.3912 12.5691C22.2185 13.5097 21.9981 14.4411 21.7308 15.3595L21.6229 15.374Z" fill="#6E3620"/>
<path d="M12.1021 17.1355C12.1447 15.5349 12.445 13.9514 12.9915 12.4455C13.5232 10.9294 14.3335 9.52521 15.3812 8.30457C15.9199 7.70959 16.5189 7.17166 17.1687 6.69938L17.6655 6.35903C17.8339 6.25041 18.0109 6.15386 18.1842 6.05127C18.2714 6.00058 18.3562 5.94868 18.4447 5.90041L18.7149 5.76161C18.8955 5.67592 19.0724 5.58057 19.2578 5.50213C19.6311 5.35488 19.9983 5.18954 20.3848 5.0785C20.5763 5.01936 20.7653 4.95057 20.9592 4.89867L21.5433 4.75505L21.8366 4.68505L22.1323 4.63556L22.7248 4.5366C22.8242 4.51729 22.9236 4.50763 23.0229 4.49798L23.3198 4.4678L23.9258 4.40625L23.9342 4.51125C22.3758 5.00971 20.918 5.54678 19.602 6.26972C18.9556 6.62979 18.3385 7.03979 17.7564 7.49594C17.6825 7.54905 17.6134 7.60939 17.5443 7.66974L17.3359 7.84715L17.1275 8.02698L16.9324 8.21888C16.6609 8.45785 16.4125 8.72941 16.1701 8.99251C15.1993 10.1199 14.3953 11.3798 13.7828 12.7339C13.4556 13.4294 13.1656 14.1417 12.914 14.8678C12.6449 15.6016 12.4292 16.3583 12.2075 17.138L12.1021 17.1355Z" fill="#6E3620"/>
<path d="M23.7859 37.1354C23.2249 36.6521 22.7116 36.1167 22.2529 35.5362C21.7881 34.9602 21.3603 34.3555 20.9721 33.7258C20.203 32.4571 19.5771 31.1077 19.1059 29.702C18.1582 26.8863 17.8322 23.8907 17.951 20.9398C18.0883 17.979 18.6494 15.0529 19.6172 12.2501C20.0987 10.8482 20.6857 9.48456 21.3732 8.1707C22.063 6.86271 22.8706 5.61973 23.7859 4.45703C22.912 5.64707 22.1417 6.90925 21.4834 8.22984C20.823 9.54535 20.2619 10.9081 19.8051 12.3068C19.3482 13.7032 18.9839 15.128 18.7144 16.572C18.4446 18.0163 18.279 19.478 18.2188 20.9459C18.149 22.4127 18.2001 23.8828 18.3715 25.3414C18.548 26.799 18.8604 28.237 19.3046 29.6368C19.7487 31.0386 20.3469 32.3873 21.0884 33.6582C21.4573 34.2954 21.8665 34.9085 22.3135 35.494C22.5365 35.786 22.7708 36.0701 23.0164 36.346C23.2574 36.6237 23.5143 36.8872 23.7859 37.1354V37.1354Z" fill="#6E3620"/>
<path d="M24.0554 37.1373C24.327 36.8917 24.5839 36.6306 24.8249 36.3552C25.0673 36.0824 25.3 35.8008 25.5229 35.5104C25.965 34.9306 26.3698 34.3235 26.7347 33.6928C27.472 32.4337 28.0689 31.0981 28.5149 29.7099C29.4165 26.9341 29.7522 24.0049 29.6298 21.0986C29.5721 19.6423 29.4219 18.1912 29.1802 16.7538C28.9486 15.3164 28.6326 13.8939 28.2338 12.4934C27.8327 11.0914 27.3176 9.72423 26.6935 8.40555C26.0715 7.08414 25.3223 5.82589 24.4565 4.64844C25.3657 5.80039 26.1543 7.04192 26.8099 8.35366C27.4605 9.66987 28.0016 11.0371 28.4277 12.4415C28.8524 13.8436 29.1839 15.272 29.4201 16.7176C29.6719 18.1636 29.8314 19.6241 29.8976 21.0902C29.9532 22.5583 29.8868 24.0285 29.6989 25.4858C29.5142 26.9444 29.1833 28.3809 28.7112 29.7739C28.2392 31.1655 27.615 32.5011 26.8499 33.7567C26.4638 34.3812 26.0388 34.981 25.5775 35.5526C25.1214 36.1275 24.6118 36.6581 24.0554 37.1373V37.1373Z" fill="#6E3620"/>
<path opacity="0.05" d="M10.4297 21.4619V21.468C10.4307 21.65 10.4697 21.8298 10.5442 21.996C10.6187 22.1622 10.727 22.3112 10.8623 22.4335C12.7321 24.1232 15.0164 25.1068 17.4825 25.1068C23.8094 25.1068 28.9378 18.5895 28.9378 10.5599C28.9387 9.36722 28.8234 8.17727 28.5936 7.00676C28.5492 6.79158 28.4519 6.59074 28.3104 6.42223C28.169 6.25372 27.9877 6.1228 27.7829 6.04123C26.4685 5.5042 25.0616 5.22748 23.6409 5.22656C16.3458 5.23139 10.4297 12.4982 10.4297 21.4619Z" fill="white"/>
<path opacity="0.05" d="M21.8656 6.21597C17.8932 6.86046 14.5462 9.93687 12.8448 14.1876C12.7551 14.4112 12.7251 14.6541 12.7576 14.8926C12.7901 15.1312 12.884 15.3573 13.0302 15.549C14.1693 17.0432 15.7556 17.9701 17.5139 17.9701C20.9858 17.9701 23.7996 14.3493 23.7996 9.8717C23.8018 8.97539 23.6856 8.08268 23.4543 7.2165C23.3613 6.8831 23.1473 6.59603 22.8536 6.41111C22.56 6.22619 22.2078 6.15663 21.8656 6.21597V6.21597Z" fill="white"/>
<path d="M37.8971 28.1747C35.1914 30.4595 29.2564 35.4776 29.2564 35.4776L28.2396 35.5052C28.8688 35.4881 29.4655 35.2218 29.8984 34.7648C30.3312 34.3078 30.5648 33.6975 30.5477 33.0683C30.5399 32.7568 30.4701 32.45 30.3424 32.1658C30.2148 31.8816 30.0317 31.6257 29.8041 31.413C29.7009 31.3161 29.5896 31.2284 29.4714 31.1506C29.0697 30.8817 28.594 30.7451 28.1109 30.7602L15.5706 31.1005C13.8346 31.1502 12.1888 31.8851 10.993 33.1445L7.13516 37.2175L12.6073 45.3856L13.2271 44.7311L24.9607 44.4127C27.0104 44.3584 28.9714 43.5657 30.483 42.1803L42.6155 31.0653C42.8504 30.8383 43.0356 30.565 43.1594 30.2627C43.2831 29.9604 43.3427 29.6357 43.3343 29.3092L43.3327 29.2482C43.3249 28.9472 43.2578 28.6507 43.1352 28.3757C43.0126 28.1007 42.837 27.8525 42.6184 27.6455C42.3998 27.4384 42.1425 27.2766 41.8613 27.1691C41.58 27.0616 41.2803 27.0107 40.9794 27.0192L40.9319 27.0205C40.0896 27.0416 39.2668 27.2788 38.5425 27.7094C38.3161 27.8483 38.1004 28.0038 37.8971 28.1747V28.1747Z" fill="#FFD6BD"/>
<path d="M17.6774 33.7571L27.8452 33.4811C28.3435 33.4664 28.828 33.3141 29.2451 33.041C29.6622 32.768 29.9957 32.3849 30.2086 31.9341C30.417 32.277 30.5337 32.6677 30.5474 33.0686C30.5645 33.6979 30.3309 34.3081 29.898 34.7651C29.4652 35.2221 28.8685 35.4884 28.2393 35.5055L15.6991 35.8458C15.6844 35.3065 15.8846 34.7834 16.2556 34.3917C16.6267 34 17.1381 33.7717 17.6774 33.7571Z" fill="#FEC09B"/>
<path d="M8.75577 35.5064L10.6534 38.3183C11.4195 39.4527 12.4593 40.3756 13.6768 41.0015C14.8942 41.6274 16.2499 41.936 17.6182 41.8988L25.9646 41.6723C26.8858 41.6475 27.7713 41.3104 28.4757 40.7162L40.8852 30.2598C41.3397 29.8941 41.6643 29.3916 41.8106 28.8268C41.9569 28.2621 41.9173 27.6652 41.6976 27.1248C42.1593 27.261 42.5661 27.5398 42.8597 27.9212C43.1533 28.3027 43.3188 28.7672 43.3324 29.2484L43.334 29.3094C43.3424 29.636 43.2828 29.9607 43.159 30.263C43.0353 30.5653 42.8501 30.8386 42.6151 31.0655L30.4826 42.1806C28.9711 43.5659 27.01 44.3587 24.9604 44.413L13.2268 44.7314L12.6069 45.3859L7.13483 37.2178L8.75577 35.5064Z" fill="#FEC09B"/>
<g style="mix-blend-mode:screen" opacity="0.8">
<g clip-path="url(#clip1_8311_44483)">
<path d="M21.3463 21.3828C21.758 21.3828 22.0918 21.7169 22.0918 22.1284C22.0918 22.5401 21.758 22.8739 21.3463 22.8739C20.9348 22.8739 20.6011 22.5401 20.6011 22.1284C20.601 21.7169 20.9348 21.3828 21.3463 21.3828Z" fill="#E58D59"/>
<path d="M21.3463 15.9805C21.758 15.9805 22.0918 16.3142 22.0918 16.726C22.0918 17.1378 21.758 17.4716 21.3463 17.4716C20.9348 17.4716 20.6011 17.1378 20.6011 16.726C20.601 16.3142 20.9348 15.9805 21.3463 15.9805Z" fill="#E58D59"/>
<path d="M26.7967 15.9805C27.2081 15.9805 27.5422 16.3142 27.5422 16.726C27.5422 17.1378 27.2081 17.4716 26.7967 17.4716C26.3849 17.4716 26.0511 17.1378 26.0511 16.726C26.0511 16.3142 26.3849 15.9805 26.7967 15.9805Z" fill="#E58D59"/>
<path d="M26.7967 21.3828C27.2081 21.3828 27.5422 21.7169 27.5422 22.1284C27.5422 22.5401 27.2081 22.8739 26.7967 22.8739C26.3849 22.8739 26.0511 22.5401 26.0511 22.1284C26.0511 21.7169 26.3849 21.3828 26.7967 21.3828Z" fill="#E58D59"/>
<path d="M31.6898 25.6474H30.2792H29.561C29.0999 25.6474 28.7262 25.2736 28.7262 24.8128V20.2253H24.8571V24.9768C24.8571 25.3471 24.5569 25.6473 24.1865 25.6473H19.2406C18.9558 25.6473 18.6909 25.7928 18.5375 26.0328L17.8823 27.058V25.6474V24.9292C17.8823 24.4685 18.2557 24.0947 18.7168 24.0947H23.304V20.2253H18.5529C18.1825 20.2253 17.8823 19.9251 17.8823 19.5547V14.6091C17.8823 14.3243 17.7368 14.059 17.4969 13.9056L16.4717 13.2505H17.8823H18.6001C19.0612 13.2505 19.435 13.6243 19.435 14.0854V18.6726H23.3041V13.921C23.3041 13.5507 23.6046 13.2505 23.975 13.2505H28.9206C29.2054 13.2505 29.4707 13.1053 29.624 12.865L30.2792 11.8398V13.2505V13.9686C30.2792 14.4297 29.9054 14.8035 29.4443 14.8035H24.8571V18.6726H29.6086C29.979 18.6726 30.2792 18.9728 30.2792 19.3432V24.2888C30.2792 24.5736 30.4243 24.8388 30.6643 24.9922L31.6898 25.6474Z" fill="#E68D59"/>
</g>
</g>
</g>
</g>
</g>
<defs>
<linearGradient id="paint0_linear_8311_44483" x1="23.9039" y1="32.9697" x2="-17.1019" y2="-38.3446" gradientUnits="userSpaceOnUse">
<stop stop-color="#FFCF01"/>
<stop offset="1" stop-color="white"/>
</linearGradient>
<clipPath id="clip0_8311_44483">
<rect width="48" height="48" fill="white"/>
</clipPath>
<clipPath id="clip1_8311_44483">
<rect x="16.4717" y="11.8398" width="15.2181" height="15.2181" fill="white"/>
</clipPath>
</defs>
</svg>
