<svg width="120" height="120" viewBox="0 0 120 120" fill="none" xmlns="http://www.w3.org/2000/svg">
<path d="M56.5523 108.311C83.1866 108.311 104.779 86.7178 104.779 59.9886C104.779 33.2594 83.1866 11.6668 56.5523 11.6668C29.918 11.6668 8.32523 33.2594 8.32523 59.9886C8.32523 86.7178 29.918 108.311 56.5523 108.311Z" fill="#F9FBFF" stroke="#E6E4EB" stroke-width="1.90244" stroke-miterlimit="10"/>
<path d="M110.296 40.1077C112.45 40.1077 114.196 38.3617 114.196 36.2077C114.196 34.0539 112.45 32.3077 110.296 32.3077C108.142 32.3077 106.396 34.0539 106.396 36.2077C106.396 38.3617 108.142 40.1077 110.296 40.1077Z" fill="#F9FBFF"/>
<path d="M116.003 24.7931C117.474 24.7931 118.667 23.6006 118.667 22.1297C118.667 20.6587 117.474 19.4663 116.003 19.4663C114.532 19.4663 113.34 20.6587 113.34 22.1297C113.34 23.6006 114.532 24.7931 116.003 24.7931Z" fill="#F9FBFF"/>
<path d="M4.99586 42.8663C6.46682 42.8663 7.65929 41.6739 7.65929 40.2029C7.65929 38.7319 6.46682 37.5395 4.99586 37.5395C3.52488 37.5395 2.33243 38.7319 2.33243 40.2029C2.33243 41.6739 3.52488 42.8663 4.99586 42.8663Z" fill="#EAEEF9"/>
<path d="M9.94252 100.795C12.6743 100.795 14.8889 98.5807 14.8889 95.8489C14.8889 93.1171 12.6743 90.9026 9.94252 90.9026C7.21072 90.9026 4.99615 93.1171 4.99615 95.8489C4.99615 98.5807 7.21072 100.795 9.94252 100.795Z" fill="#F9FBFF"/>
<path d="M101.26 40.6785H18.7888C16.9815 40.6785 15.5547 39.2517 15.5547 37.4444V18.8957C15.5547 17.0884 16.9815 15.6615 18.7888 15.6615H101.164C102.972 15.6615 104.399 17.0884 104.399 18.8957V37.4444C104.494 39.2517 102.972 40.6785 101.26 40.6785Z" fill="white" stroke="#E6E4EB" stroke-width="1.90244" stroke-miterlimit="10"/>
<path d="M35.5305 28.1224C35.5305 30.2151 34.5792 32.1175 33.1524 33.4493C31.9158 34.5907 30.2036 35.2566 28.3963 35.2566C26.5889 35.2566 24.8767 34.5907 23.6401 33.4493C22.1182 32.1175 21.2621 30.2151 21.2621 28.1224C21.2621 24.2225 24.4962 20.9883 28.3963 20.9883C32.2963 20.9883 35.5305 24.2225 35.5305 28.1224Z" fill="#E6E4EB"/>
<path d="M58.9303 26.0295H40.6667C40.1911 26.0295 39.9058 25.649 39.9058 25.2686V22.8905C39.9058 22.4149 40.2863 22.1295 40.6667 22.1295H58.9303C59.4059 22.1295 59.6912 22.51 59.6912 22.8905V25.2686C59.6912 25.7442 59.4059 26.0295 58.9303 26.0295Z" fill="#E6E4EB"/>
<path d="M80.6182 34.115H40.6667C40.1911 34.115 39.9058 33.7345 39.9058 33.354V30.976C39.9058 30.5004 40.2863 30.215 40.6667 30.215H80.6182C81.0938 30.215 81.3791 30.5955 81.3791 30.976V33.354C81.3791 33.8296 80.9986 34.115 80.6182 34.115Z" fill="#E6E4EB"/>
<path d="M101.26 103.078H18.7888C16.9815 103.078 15.5547 101.651 15.5547 99.844V81.2953C15.5547 79.488 16.9815 78.0611 18.7888 78.0611H101.164C102.972 78.0611 104.399 79.488 104.399 81.2953V99.844C104.494 101.651 102.972 103.078 101.26 103.078Z" fill="white" stroke="#E6E4EB" stroke-width="1.90244" stroke-miterlimit="10"/>
<path d="M35.5305 90.522C35.5305 92.6147 34.5792 94.5171 33.1524 95.8488C31.9158 96.9903 30.2036 97.6561 28.3963 97.6561C26.5889 97.6561 24.8767 96.9903 23.6401 95.8488C22.1182 94.5171 21.2621 92.6147 21.2621 90.522C21.2621 86.622 24.4962 83.3879 28.3963 83.3879C32.2963 83.3879 35.5305 86.622 35.5305 90.522Z" fill="#E6E4EB"/>
<path d="M58.9303 88.5246H40.6667C40.1911 88.5246 39.9058 88.1441 39.9058 87.7637V85.3856C39.9058 84.91 40.2863 84.6246 40.6667 84.6246H58.9303C59.4059 84.6246 59.6912 85.0051 59.6912 85.3856V87.7637C59.6912 88.1441 59.4059 88.5246 58.9303 88.5246Z" fill="#E6E4EB"/>
<path d="M80.6182 96.6099H40.6667C40.1911 96.6099 39.9058 96.2294 39.9058 95.8489V93.4709C39.9058 92.9953 40.2863 92.7098 40.6667 92.7098H80.6182C81.0938 92.7098 81.3791 93.0904 81.3791 93.4709V95.8489C81.3791 96.2294 80.9986 96.6099 80.6182 96.6099Z" fill="#E6E4EB"/>
<path d="M87.2769 71.8787H4.90091C3.09358 71.8787 1.66675 70.4518 1.66675 68.6445V50.0958C1.66675 48.2885 3.09358 46.8617 4.90091 46.8617H87.2769C89.0843 46.8617 90.5111 48.2885 90.5111 50.0958V68.6445C90.6062 70.4518 89.0843 71.8787 87.2769 71.8787Z" fill="white" stroke="#E6E4EB" stroke-width="1.90244" stroke-miterlimit="10"/>
<path d="M45.0432 57.2299H26.7797C26.3041 57.2299 26.0187 56.8494 26.0187 56.469V54.0909C26.0187 53.6153 26.3992 53.3299 26.7797 53.3299H45.0432C45.5188 53.3299 45.8042 53.7104 45.8042 54.0909V56.469C45.8042 56.9446 45.5188 57.2299 45.0432 57.2299Z" fill="#E6E4EB"/>
<path d="M66.7311 65.4105H26.7797C26.3041 65.4105 26.0187 65.03 26.0187 64.6495V62.2715C26.0187 61.7958 26.3992 61.5105 26.7797 61.5105H66.636C67.1116 61.5105 67.397 61.891 67.397 62.2715V64.6495C67.4921 65.03 67.1116 65.4105 66.7311 65.4105Z" fill="#E6E4EB"/>
<path d="M21.7378 59.3226C21.7378 61.3201 20.8817 63.1274 19.55 64.4591C19.4548 64.5542 19.4548 64.5542 19.3597 64.6494C18.1231 65.7908 16.4109 66.4567 14.6036 66.4567C12.7963 66.4567 11.1792 65.7908 9.9426 64.7445C9.9426 64.7445 9.9426 64.7445 9.84748 64.7445C8.32552 63.4128 7.3743 61.5103 7.3743 59.3226C7.3743 55.4226 10.6085 52.1884 14.5085 52.1884C18.5036 52.1884 21.7378 55.4226 21.7378 59.3226Z" fill="#E6E4EB"/>
</svg>
