<svg width="48" height="48" viewBox="0 0 48 48" fill="none" xmlns="http://www.w3.org/2000/svg">
<g clip-path="url(#clip0_8311_44537)">
<path d="M24 48C37.2548 48 48 37.2548 48 24C48 10.7452 37.2548 0 24 0C10.7452 0 0 10.7452 0 24C0 37.2548 10.7452 48 24 48Z" fill="#FFC400"/>
<mask id="mask0_8311_44537" style="mask-type:alpha" maskUnits="userSpaceOnUse" x="0" y="0" width="48" height="48">
<path d="M24 48C37.2548 48 48 37.2548 48 24C48 10.7452 37.2548 0 24 0C10.7452 0 0 10.7452 0 24C0 37.2548 10.7452 48 24 48Z" fill="#FFC400"/>
</mask>
<g mask="url(#mask0_8311_44537)">
<path d="M47.9997 24C47.9997 23.3047 47.9684 22.617 47.9104 21.9368L24.9998 8V16V18.5L17.1485 21.7734L18.5622 20.0488H21.2933V16.9233L22.9998 21L18.5622 21.7734L18.5622 24V26.0625V28.3125L17.1485 32.625L15.5671 30.0886C14.6466 30.219 13.671 30.5978 12.7691 31.2264C10.4763 32.8246 16.8548 28.4743 17.9799 30.0886C18.0467 30.1844 12.7691 19.0139 12.769 31.3271L31.9999 48C32.8884 48.0998 23.0845 48 23.9997 48C37.2545 48 47.9997 37.2548 47.9997 24Z" fill="#FF9500"/>
</g>
<mask id="mask1_8311_44537" style="mask-type:luminance" maskUnits="userSpaceOnUse" x="9" y="6" width="31" height="31">
<path d="M9 6H40V37H9V6Z" fill="white"/>
</mask>
<g mask="url(#mask1_8311_44537)">
<path d="M9 22.8805C9 25.7494 10.1833 28.4464 12.1742 30.5589L14.3281 31.6737L14.7854 32.7294C17.4432 34.4629 20.8216 35.5 24.5 35.5L25.9531 27.8592L24.5 20.6715L9 22.8805Z" fill="#FF5B5B"/>
<path d="M24.5 20.6715V35.5C28.1871 35.5 31.5728 34.458 34.2336 32.717L34.5508 31.5526L36.8031 30.5829C38.8076 28.4664 40 25.7602 40 22.8805L24.5 20.6715Z" fill="#E40048"/>
<path d="M21.898 30.3345L19.265 31.061L16.6317 30.3345L13.9983 31.061L12.1741 30.5577C12.9337 31.3638 13.811 32.0928 14.7852 32.7282L16.6317 32.2188L19.265 32.9453L21.898 32.2188L24.4999 32.9367L25.0448 31.8542L24.4999 31.0524L21.898 30.3345Z" fill="#FFE370"/>
<path d="M35.0654 31.061L32.4317 30.3345L29.7983 31.061L27.1648 30.3345L24.5315 31.061L24.5 31.0524V32.9367L24.5315 32.9453L27.1648 32.2188L29.7983 32.9453L32.4317 32.2188L34.2336 32.7158C35.1906 32.0897 36.0537 31.373 36.8031 30.5817L35.0654 31.061Z" fill="#FFB54C"/>
<path d="M23.5352 26.875V28.6914H24.4999L24.8632 27.7997L24.4999 26.875H23.5352Z" fill="#00DDC0"/>
<path d="M25.4648 26.875H24.5V28.6914H25.4648V26.875Z" fill="#00AA8E"/>
<path d="M9 22.881C9 24.4038 13.2224 25.7016 19.1423 26.1992L24.5 20.9775L25.4082 20.352L24.5 19.3459C15.9396 19.3459 9 20.9286 9 22.881Z" fill="#E40048"/>
<path d="M24.5 19.3459V20.9775L29.8577 26.1992C35.7776 25.7016 40 24.4038 40 22.881C40 20.9286 33.0604 19.3459 24.5 19.3459Z" fill="#9A000A"/>
<path d="M20.1267 16.9469C20.1267 19.3623 22.0848 21.3203 24.5001 21.3203L25.6505 16.3555L24.5001 8.13569C24.5001 8.13569 20.1267 14.5315 20.1267 16.9469Z" fill="#FFE370"/>
<path d="M28.8734 16.9469C28.8734 14.5315 24.5 8.13569 24.5 8.13569V21.3203C26.9153 21.3203 28.8734 19.3623 28.8734 16.9469Z" fill="#FFB54C"/>
</g>
</g>
<defs>
<clipPath id="clip0_8311_44537">
<rect width="48" height="48" fill="white"/>
</clipPath>
</defs>
</svg>
