<svg width="48" height="48" viewBox="0 0 48 48" fill="none" xmlns="http://www.w3.org/2000/svg">
<rect width="48" height="48" rx="24" fill="url(#paint0_linear_8320_49085)"/>
<mask id="mask0_8320_49085" style="mask-type:alpha" maskUnits="userSpaceOnUse" x="0" y="0" width="48" height="48">
<rect width="48" height="48" rx="24" fill="#FFD622"/>
</mask>
<g mask="url(#mask0_8320_49085)">
<path d="M10.0299 15.0455V22.2097L9.31348 36.1798C9.73139 38.747 10.6388 44.0604 10.9254 44.7768C11.212 45.4932 11.6418 49.6126 11.8209 51.5828L40.2986 51.2246L50.1493 49.7917L52.4777 38.5082L52.6568 21.8514L50.6866 20.2395L49.9702 19.5231L49.4329 17.9111L43.8806 13.9708L31.1642 5.37383L29.1941 6.09025L27.7612 5.01562L24 5.37383L24.3583 16.8365L22.209 20.4186L15.403 15.5828H13.4329L10.0299 15.0455Z" fill="#FFB802"/>
<circle cx="24" cy="16.8376" r="7.8806" fill="white"/>
<path d="M44.0552 39.3369L32.5441 39.1016L32.5156 49.1086H44.0328L44.0552 39.3369Z" fill="#F95E5A"/>
<path d="M32.537 41.6158L38.1411 49.1086H44.0328L44.0552 39.3369L32.5441 39.1016L32.537 41.6158Z" fill="#EF4136"/>
<path d="M39.9858 47.0435C39.9858 47.0435 40.9922 46.2411 39.9858 45.0684C39.9858 45.0684 40.4889 43.9886 39.6503 43.4019C38.8325 42.8297 38.2806 42.2634 37.9946 41.7028V41.6602C37.9911 41.6673 37.9874 41.6744 37.9839 41.6816C37.9803 41.6744 37.9765 41.6674 37.9731 41.6602V41.7028C37.6869 42.2617 37.135 42.828 36.3173 43.4017C35.4787 43.9881 35.9818 45.0683 35.9818 45.0683C34.9755 46.2411 35.9818 47.0433 35.9818 47.0433C35.0873 47.9385 35.5066 49.1112 35.5066 49.1112L37.9731 49.509V49.5124L37.9839 49.5107L37.9946 49.5124V49.509L40.461 49.1112C40.461 49.1112 40.8803 47.9385 39.9858 47.0435Z" fill="#FBB040"/>
<path d="M37.9837 43.1328C37.4009 44.151 36.4659 44.3974 36.4426 45.9746V49.1064H39.5253V45.9747C39.5015 44.3977 38.2725 44.0892 37.9837 43.1328Z" fill="#EF4136"/>
<path d="M39.986 47.0435C39.986 47.0435 40.9924 46.2411 39.986 45.0684C39.986 45.0684 40.4891 43.9886 39.6505 43.4019C38.8327 42.8297 38.2808 42.2634 37.9948 41.7028V41.6602C37.9913 41.6673 37.9876 41.6744 37.9841 41.6816C37.9805 41.6744 37.9767 41.6674 37.9733 41.6602V41.7028C37.6871 42.2617 37.1352 42.828 36.3175 43.4017C35.4789 43.9881 35.982 45.0683 35.982 45.0683C35.7844 45.2986 35.6647 45.5145 35.5995 45.713L38.1412 49.1113H40.4612C40.4612 49.1113 40.8805 47.9385 39.986 47.0435Z" fill="#F7941E"/>
<path d="M37.9837 43.1328C37.4009 44.151 36.4659 44.3974 36.4426 45.9746V46.8388L38.139 49.1064H39.5253V45.9747C39.5015 44.3977 38.2725 44.0892 37.9837 43.1328Z" fill="#BE1E2D"/>
<path d="M38.2853 22.7188C33.9625 22.7188 33.5909 38.9412 33.5909 38.9412H42.9797C42.9797 38.9412 42.6082 22.7188 38.2853 22.7188Z" fill="#F7941E"/>
<path d="M42.9797 38.9415C42.9797 38.9415 42.9594 38.0578 42.8736 36.7031C39.6441 38.6514 35.9431 38.5884 33.6146 38.2648C33.5966 38.6955 33.5909 38.9415 33.5909 38.9415H42.9797Z" fill="#E07C0E"/>
<path d="M38.2856 24.4688C34.428 24.4688 34.0964 38.9449 34.0964 38.9449H42.4749C42.4749 38.9449 42.1431 24.4688 38.2856 24.4688Z" fill="#EF4136"/>
<path d="M38.2853 38.9423H33.5909C33.5909 38.9423 33.7989 29.8679 35.7123 25.293C32.7251 27.0215 32.4519 38.9466 32.4519 38.9466H40.4745C40.4745 38.9466 40.4745 38.9449 40.4745 38.9423H38.2853Z" fill="#F95E5A"/>
<path d="M40.8587 25.293C42.7719 29.8682 42.9799 38.9423 42.9799 38.9423H36.0964C36.0964 38.9449 36.0964 38.9466 36.0964 38.9466H44.1191C44.1191 38.9466 43.8457 27.0215 40.8587 25.293Z" fill="#E02722"/>
<path d="M44.1189 38.9465C44.1189 38.9465 44.0904 37.7029 43.9516 35.9609C43.6059 36.2316 43.246 36.4797 42.874 36.7039C42.96 38.0586 42.9803 38.9422 42.9803 38.9422H36.0964C36.0964 38.9448 36.0964 38.9465 36.0964 38.9465H44.1191H44.1189Z" fill="#A50F21"/>
<path d="M38.2854 27.8555C37.7501 31.0574 36.3188 32.0944 36.3188 36.055C36.3188 37.1403 37.1993 38.0202 38.2854 38.0202C39.3715 38.0202 40.252 37.1403 40.252 36.055C40.252 32.0944 38.8207 31.0574 38.2854 27.8555Z" fill="#F7941E"/>
<path d="M39.5793 35.6152C39.3733 34.9497 39.024 34.8534 38.7782 34.4594C38.5324 34.0653 39.3889 34.0128 39.4047 33.7589C39.4206 33.5049 38.5939 33.1503 38.5167 32.8221C38.4276 32.443 39.1547 32.3317 39.1194 31.7362C39.0907 31.2517 38.3779 29.6523 38.3779 29.6523C38.3779 29.6523 37.6652 31.2517 37.6365 31.7362C37.6011 32.3317 38.3281 32.443 38.2392 32.8221C38.162 33.1503 37.3351 33.5049 37.3512 33.7589C37.3673 34.0128 38.2236 34.0653 37.9778 34.4594C37.732 34.8534 37.3828 34.9497 37.1766 35.6152C36.9705 36.2808 37.3506 37.7778 38.303 37.953C38.3529 37.9617 38.4037 37.9617 38.4536 37.953C39.4047 37.7778 39.7854 36.2806 39.5793 35.6152Z" fill="#EF4136"/>
<path d="M39.2801 33.5485C39.1674 33.3689 38.7877 33.1539 38.5723 32.9375C38.7171 33.1475 39.0854 33.3615 39.2801 33.5485Z" fill="#F95E5A"/>
<path d="M39.1962 34.9355C39.0877 34.7984 38.9723 34.6959 38.8639 34.5781C38.9679 34.7107 39.0836 34.8126 39.1962 34.9355Z" fill="#F95E5A"/>
<path d="M37.3553 33.7856C37.3527 33.7772 37.351 33.7684 37.3504 33.7595C37.3346 33.5056 38.1613 33.1509 38.2385 32.8227C38.2695 32.6905 38.2014 32.5911 38.101 32.4922C38.1452 32.5585 38.1662 32.63 38.1463 32.7147C38.0691 33.0429 37.2422 33.3977 37.2583 33.6516C37.2615 33.7031 37.299 33.7463 37.3553 33.7856Z" fill="#F95E5A"/>
<path d="M37.1761 35.6149C37.3821 34.9494 37.7313 34.8531 37.9773 34.459C38.063 34.3216 38.0145 34.2257 37.9145 34.1484C37.9395 34.2053 37.9351 34.2709 37.8851 34.3512C37.6392 34.7452 37.2903 34.8415 37.084 35.5069C36.9295 36.0043 37.1035 36.9656 37.5988 37.4931C37.1747 36.9507 37.0321 36.0799 37.1761 35.6149Z" fill="#F95E5A"/>
<path d="M37.7623 32.1523C37.6815 32.042 37.6262 31.9093 37.6366 31.7348C37.6623 31.3019 38.234 29.9789 38.3554 29.7021C38.3124 29.6026 38.2859 29.543 38.2859 29.543C38.2859 29.543 37.5726 31.1423 37.5436 31.627C37.5299 31.8623 37.6352 32.0219 37.7623 32.1523Z" fill="#F95E5A"/>
<path d="M46.2184 38.9414H30.3525C30.1982 38.9414 30.073 39.0796 30.073 39.25V39.2661C30.073 39.4365 30.1982 39.5747 30.3525 39.5747H46.2184C46.3728 39.5747 46.4979 39.4365 46.4979 39.2661V39.25C46.4979 39.0796 46.3728 38.9414 46.2184 38.9414Z" fill="#F7941E"/>
<path d="M46.2181 39.2641H30.3525C30.3021 39.264 30.2526 39.2488 30.2092 39.2202C30.1659 39.1916 30.1304 39.1506 30.1065 39.1016C30.0845 39.1464 30.073 39.1965 30.073 39.2475V39.2635C30.0732 39.3453 30.1027 39.4237 30.1551 39.4815C30.2075 39.5394 30.2785 39.5719 30.3525 39.5722H46.2181C46.2922 39.5719 46.3632 39.5394 46.4156 39.4815C46.468 39.4237 46.4975 39.3453 46.4977 39.2635V39.2475C46.4977 39.1965 46.4862 39.1464 46.4642 39.1016C46.4403 39.1506 46.4048 39.1916 46.3614 39.2202C46.3181 39.2488 46.2686 39.264 46.2181 39.2641V39.2641Z" fill="#BE1E2D"/>
<path d="M38.2971 30.2812C38.2167 30.8132 38.0011 30.9854 38.0011 31.6435C38.0011 31.7301 38.0323 31.8133 38.0878 31.8745C38.1433 31.9358 38.2186 31.9703 38.2971 31.9703C38.3756 31.9703 38.4509 31.9358 38.5064 31.8745C38.5619 31.8133 38.5931 31.7301 38.5931 31.6435C38.593 30.9854 38.3777 30.8132 38.2971 30.2812Z" fill="#F7941E"/>
<path d="M38.1239 31.7787C38.1239 31.2155 38.2815 31.0079 38.3774 30.6262C38.3419 30.514 38.315 30.3985 38.2971 30.2812C38.2167 30.8132 38.0011 30.9854 38.0011 31.6435C38.0011 31.7027 38.0158 31.7609 38.0434 31.8117C38.0711 31.8625 38.1108 31.9041 38.1582 31.9319C38.1356 31.8847 38.1238 31.8321 38.1239 31.7787V31.7787Z" fill="#FBB040"/>
<path d="M38.9357 36.0954C38.9357 36.2348 38.8983 36.3711 38.8281 36.487C38.758 36.603 38.6583 36.6934 38.5416 36.7467C38.4249 36.8001 38.2966 36.8141 38.1727 36.7869C38.0488 36.7597 37.9351 36.6926 37.8457 36.594C37.7564 36.4954 37.6956 36.3698 37.671 36.2331C37.6463 36.0964 37.659 35.9546 37.7073 35.8258C37.7556 35.697 37.8374 35.5869 37.9424 35.5094C38.0474 35.432 38.1709 35.3906 38.2972 35.3906C38.4665 35.3906 38.6289 35.4649 38.7486 35.597C38.8684 35.7292 38.9356 35.9085 38.9357 36.0954V36.0954Z" fill="#F7941E"/>
<path d="M37.8324 36.1676C37.8324 36.0624 37.8537 35.9585 37.8948 35.8636C37.9359 35.7687 37.9957 35.6851 38.0699 35.619C38.1441 35.553 38.2307 35.5061 38.3234 35.4818C38.4161 35.4575 38.5126 35.4564 38.6057 35.4786C38.5255 35.4296 38.4366 35.4003 38.3451 35.3926C38.2537 35.385 38.1618 35.3992 38.0758 35.4342C37.9898 35.4693 37.9116 35.5244 37.8465 35.5958C37.7815 35.6672 37.7312 35.7532 37.699 35.848C37.6668 35.9428 37.6535 36.0441 37.6599 36.1451C37.6664 36.2461 37.6925 36.3444 37.7364 36.4333C37.7803 36.5222 37.8411 36.5995 37.9146 36.6602C37.988 36.7208 38.0725 36.7632 38.1621 36.7846C38.0622 36.7237 37.9789 36.6343 37.9209 36.5258C37.8629 36.4173 37.8323 36.2936 37.8324 36.1676V36.1676Z" fill="#FBB040"/>
<path d="M33.5909 38.9395H36.327C36.382 38.241 36.0845 37.459 35.735 36.8879C35.0082 35.6996 35.0786 33.2931 35.5952 31.9654C36.1118 30.6377 36.2941 29.2799 36.3185 27.2125C36.343 25.1451 36.9789 24.219 37.3004 23.7869C37.5897 23.398 37.5506 23.2484 37.3667 22.9844C33.9083 25.0893 33.5909 38.9395 33.5909 38.9395Z" fill="#FBB040"/>
<path d="M36.319 27.2147C36.3252 26.689 36.3711 26.2367 36.4413 25.8477C34.3133 29.464 34.0964 38.9448 34.0964 38.9448H36.327C36.3832 38.2456 36.0853 37.4619 35.7349 36.8901C35.0082 35.7018 35.0786 33.2952 35.5952 31.9676C36.1118 30.6399 36.2945 29.2825 36.319 27.2147Z" fill="#F7941E"/>
<path d="M40.3197 22.7579C40.3197 23.0318 39.409 23.2541 38.2856 23.2541C37.1621 23.2541 36.2521 23.0318 36.2521 22.7579C36.2521 22.4839 37.1628 22.2617 38.2862 22.2617C39.4096 22.2617 40.3197 22.4838 40.3197 22.7579Z" fill="#BE1E2D"/>
<path d="M37.8443 22.2734C36.9331 22.3226 36.2513 22.5207 36.2513 22.7578C36.2513 22.9633 36.7632 23.1395 37.4928 23.2149C37.4615 23.1172 37.3928 23.0193 37.3008 22.8929C37.0635 22.5667 37.5942 22.3838 37.8443 22.2734Z" fill="#EF4136"/>
<path d="M38.9595 25.9006H38.3417V25.2635H38.9595C39.0005 25.2635 39.0341 25.235 39.0341 25.2001C39.0341 25.1651 39.0005 25.1367 38.9595 25.1367H38.2848C38.2533 25.1367 38.2274 25.1738 38.2274 25.2191V25.9012H37.6503V25.2191C37.6503 25.1738 37.6246 25.1367 37.5928 25.1367C37.561 25.1367 37.5355 25.1738 37.5355 25.2191V25.964C37.5355 25.9988 37.5691 26.0273 37.6103 26.0273H38.2274V26.6645H37.6103C37.5691 26.6645 37.5355 26.6929 37.5355 26.7278C37.5355 26.7628 37.5691 26.7912 37.6103 26.7912H38.2848C38.3164 26.7912 38.3422 26.7541 38.3422 26.7086V26.0266H38.9193V26.7086C38.9193 26.7541 38.9451 26.7912 38.9767 26.7912C39.0084 26.7912 39.0341 26.7541 39.0341 26.7086V25.964C39.0341 25.9291 39.0005 25.9006 38.9595 25.9006Z" fill="#FBB040"/>
<path d="M38.6042 26.5067C38.6694 26.5067 38.7222 26.4483 38.7222 26.3764C38.7222 26.3044 38.6694 26.2461 38.6042 26.2461C38.539 26.2461 38.4862 26.3044 38.4862 26.3764C38.4862 26.4483 38.539 26.5067 38.6042 26.5067Z" fill="#FBB040"/>
<path d="M38.0441 26.3764C38.0441 26.4022 38.0372 26.4273 38.0243 26.4488C38.0113 26.4702 37.9929 26.4869 37.9713 26.4968C37.9497 26.5066 37.926 26.5092 37.9031 26.5042C37.8802 26.4992 37.8592 26.4867 37.8427 26.4685C37.8262 26.4503 37.8149 26.4271 37.8104 26.4018C37.8058 26.3765 37.8082 26.3503 37.8171 26.3265C37.826 26.3027 37.8411 26.2824 37.8606 26.2681C37.88 26.2537 37.9028 26.2461 37.9261 26.2461C37.9416 26.2461 37.957 26.2494 37.9713 26.256C37.9856 26.2625 37.9987 26.2721 38.0096 26.2842C38.0206 26.2963 38.0293 26.3107 38.0352 26.3265C38.0411 26.3423 38.0442 26.3593 38.0441 26.3764Z" fill="#FBB040"/>
<path d="M38.7218 25.5873C38.7218 25.6131 38.7148 25.6383 38.7019 25.6597C38.6889 25.6812 38.6704 25.6979 38.6489 25.7077C38.6273 25.7176 38.6036 25.7201 38.5807 25.7151C38.5578 25.7101 38.5367 25.6976 38.5202 25.6794C38.5037 25.6612 38.4925 25.6379 38.488 25.6127C38.4834 25.5874 38.4858 25.5612 38.4947 25.5374C38.5037 25.5136 38.5188 25.4932 38.5383 25.4789C38.5577 25.4646 38.5805 25.457 38.6039 25.457C38.6351 25.4571 38.6651 25.4708 38.6872 25.4952C38.7093 25.5197 38.7218 25.5528 38.7218 25.5873Z" fill="#FBB040"/>
<path d="M38.0441 25.5873C38.0441 25.6131 38.0372 25.6383 38.0243 25.6597C38.0113 25.6811 37.9929 25.6978 37.9713 25.7077C37.9497 25.7176 37.926 25.7201 37.9031 25.7151C37.8802 25.7101 37.8592 25.6977 37.8427 25.6795C37.8262 25.6612 37.8149 25.638 37.8104 25.6127C37.8058 25.5875 37.8082 25.5613 37.8171 25.5375C37.826 25.5137 37.8411 25.4933 37.8606 25.479C37.88 25.4647 37.9028 25.457 37.9261 25.457C37.9574 25.457 37.9874 25.4708 38.0096 25.4952C38.0317 25.5196 38.0441 25.5528 38.0441 25.5873V25.5873Z" fill="#FBB040"/>
<path d="M33.0903 36.727C33.343 36.6406 33.6197 36.3682 33.5054 36.0096C33.3911 35.6509 32.5248 34.4688 32.5248 34.4688C32.5248 34.4688 31.6585 35.6509 31.5442 36.0096C31.4299 36.3682 31.7067 36.6406 31.9593 36.727C32.2119 36.8134 32.1278 37.1322 31.8511 37.2616C31.5743 37.3911 32.5248 37.3185 32.5248 37.3185C32.5248 37.3185 33.4753 37.3915 33.1986 37.2616C32.9219 37.1318 32.8378 36.8132 33.0903 36.727Z" fill="#F7941E"/>
<path d="M32.6172 37.2608C33.0365 36.7362 32.2258 36.3503 32.1978 35.7178C32.1811 35.3394 32.3343 34.8728 32.4603 34.5586C32.2571 34.8406 31.6401 35.7108 31.5449 36.0096C31.4305 36.3682 31.7073 36.6406 31.9599 36.727C32.2126 36.8134 32.1284 37.1322 31.8517 37.2617C31.575 37.3911 32.5255 37.3185 32.5255 37.3185L32.5666 37.3214C32.5834 37.3012 32.6002 37.2819 32.6172 37.2608Z" fill="#FBB040"/>
<path d="M32.525 37.1953C31.0814 37.1953 30.9745 37.4413 30.9745 37.7448V38.9476H34.0753V37.7448C34.0753 37.4413 34.0049 37.1953 32.525 37.1953Z" fill="#BE1E2D"/>
<path d="M31.8352 38.2174C31.7807 37.7082 32.1973 37.7853 32.6167 37.2607C32.6323 37.2411 32.6469 37.2206 32.6605 37.1992C32.6167 37.1992 32.5714 37.1992 32.525 37.1992C31.0814 37.1992 30.9745 37.4452 30.9745 37.7487V38.9515H32.1378C32.0477 38.6971 31.8592 38.4409 31.8352 38.2174Z" fill="#EF4136"/>
<path d="M33.6625 45.2473C33.1034 43.4814 33.3736 41.1719 33.3736 41.1719H31.6767C31.6767 41.1719 31.947 43.4814 31.388 45.2473C30.8291 47.0131 31.2015 47.6247 31.388 47.9869C31.5517 48.3052 32.337 48.3089 32.5252 48.305C32.7135 48.3089 33.4987 48.305 33.6625 47.9869C33.8488 47.6247 34.2215 47.0133 33.6625 45.2473Z" fill="#F7941E"/>
<path d="M31.9064 45.777C31.4591 44.8818 32.9129 42.7525 32.3041 42.0567C32.0268 41.7398 31.8677 41.4397 31.8134 41.1719H31.6767C31.6767 41.1719 31.947 43.4814 31.388 45.2473C30.8291 47.0131 31.2015 47.6247 31.388 47.9869C31.5296 48.2627 32.138 48.3022 32.4205 48.3054C32.4505 48.2188 32.4848 48.1294 32.5252 48.0365C33.0044 46.932 32.3534 46.672 31.9064 45.777Z" fill="#FBB040"/>
<path d="M32.525 41.5024C33.9685 41.5024 34.0753 41.2317 34.0753 40.8978V39.5742H30.9745V40.8978C30.9745 41.2317 31.045 41.5024 32.525 41.5024Z" fill="#BE1E2D"/>
<path d="M30.9745 40.8982C30.9745 41.1787 31.0244 41.4146 31.9177 41.4828C31.7071 41.0281 31.7661 40.6395 32.0457 40.3745C32.2709 40.1613 32.2368 39.8232 32.1674 39.5742H30.9745V40.8982Z" fill="#E02722"/>
<path d="M34.0241 41.6601C34.0241 41.8822 33.353 42.0623 32.5253 42.0623C31.6977 42.0623 31.0266 41.8822 31.0266 41.6601C31.0266 41.438 31.6975 41.2578 32.5253 41.2578C33.3532 41.2578 34.0241 41.4378 34.0241 41.6601Z" fill="#EF4136"/>
<path d="M32.3038 42.0573C32.0699 41.79 31.9203 41.5348 31.8464 41.3008C31.3599 41.3673 31.0266 41.5028 31.0266 41.6594C31.0266 41.861 31.5812 42.0286 32.3038 42.0573Z" fill="#F95E5A"/>
<path d="M44.611 36.727C44.8636 36.6406 45.1404 36.3682 45.026 36.0096C44.9116 35.6509 44.0454 34.4688 44.0454 34.4688C44.0454 34.4688 43.1791 35.6509 43.0649 36.0096C42.9506 36.3682 43.2273 36.6406 43.4801 36.727C43.7328 36.8134 43.6484 37.1322 43.3717 37.2616C43.095 37.3911 44.0454 37.3185 44.0454 37.3185C44.0454 37.3185 44.996 37.3915 44.7192 37.2616C44.4424 37.1318 44.3583 36.8132 44.611 36.727Z" fill="#F7941E"/>
<path d="M44.1372 37.2608C44.5565 36.7362 43.7458 36.3503 43.7179 35.7178C43.7012 35.3394 43.8544 34.8728 43.9803 34.5586C43.7771 34.8406 43.1601 35.7108 43.0649 36.0096C42.9506 36.3682 43.2273 36.6406 43.4801 36.727C43.7328 36.8134 43.6484 37.1322 43.3717 37.2617C43.095 37.3911 44.0454 37.3185 44.0454 37.3185L44.0866 37.3214C44.1035 37.3012 44.1201 37.2819 44.1372 37.2608Z" fill="#FBB040"/>
<path d="M44.0452 37.1953C42.6018 37.1953 42.4949 37.4413 42.4949 37.7448V38.9476H45.5956V37.7448C45.5956 37.4413 45.5252 37.1953 44.0452 37.1953Z" fill="#BE1E2D"/>
<path d="M43.3556 38.2174C43.3009 37.7082 43.7177 37.7853 44.137 37.2607C44.1526 37.2411 44.1672 37.2206 44.1807 37.1992C44.137 37.1992 44.0918 37.1992 44.0452 37.1992C42.6018 37.1992 42.4949 37.4452 42.4949 37.7487V38.9515H43.6583C43.5679 38.6971 43.3794 38.4409 43.3556 38.2174Z" fill="#EF4136"/>
<path d="M45.183 45.2473C44.6239 43.4814 44.8942 41.1719 44.8942 41.1719H43.1972C43.1972 41.1719 43.4675 43.4814 42.9084 45.2473C42.3494 47.0131 42.7221 47.6247 42.9084 47.9869C43.0721 48.3052 43.8574 48.3089 44.0456 48.305C44.2341 48.3089 45.0193 48.305 45.183 47.9869C45.3693 47.6247 45.7419 47.0133 45.183 45.2473Z" fill="#F7941E"/>
<path d="M43.4265 45.777C42.9791 44.8818 44.433 42.7525 43.8242 42.0567C43.5468 41.7398 43.3879 41.4397 43.3334 41.1719H43.1972C43.1972 41.1719 43.4675 43.4814 42.9084 45.2473C42.3494 47.0131 42.7221 47.6247 42.9084 47.9869C43.05 48.2627 43.6584 48.3022 43.9409 48.3054C43.9709 48.2188 44.0052 48.1294 44.0456 48.0365C44.5249 46.932 43.874 46.672 43.4265 45.777Z" fill="#FBB040"/>
<path d="M44.0453 41.5024C45.4887 41.5024 45.5956 41.2317 45.5956 40.8978V39.5742H42.4949V40.8978C42.4949 41.2317 42.5653 41.5024 44.0453 41.5024Z" fill="#BE1E2D"/>
<path d="M42.4949 40.8982C42.4949 41.1787 42.5447 41.4146 43.438 41.4828C43.2273 41.0281 43.2865 40.6395 43.5659 40.3745C43.7912 40.1613 43.7571 39.8232 43.6877 39.5742H42.4949V40.8982Z" fill="#E02722"/>
<path d="M45.5443 41.6601C45.5443 41.8822 44.8733 42.0623 44.0456 42.0623C43.2179 42.0623 42.547 41.8822 42.547 41.6601C42.547 41.438 43.2179 41.2578 44.0456 41.2578C44.8733 41.2578 45.5443 41.4378 45.5443 41.6601Z" fill="#EF4136"/>
<path d="M43.8241 42.0573C43.5903 41.79 43.4406 41.5348 43.3667 41.3008C42.8803 41.3673 42.547 41.5028 42.547 41.6594C42.5469 41.861 43.1013 42.0286 43.8241 42.0573Z" fill="#F95E5A"/>
<path d="M42.4747 38.9426C42.4747 38.9426 42.4569 38.1693 42.382 36.9805C39.5015 38.521 36.3276 38.5719 34.1181 38.3258C34.1017 38.7184 34.0964 38.9426 34.0964 38.9426H42.4749H42.4747Z" fill="#BE1E2D"/>
<path d="M36.311 38.4374C35.5787 38.4463 34.8466 38.4098 34.1181 38.3281C34.1017 38.7206 34.0964 38.9449 34.0964 38.9449H36.327C36.3395 38.7756 36.3342 38.6053 36.311 38.4374V38.4374Z" fill="#E07C0E"/>
<path d="M43.8867 14.1546C43.9292 14.0957 43.9679 14.0336 44.0025 13.9688C44.0025 13.9687 43.9027 14.0324 43.7329 14.115C43.7846 14.1275 43.8358 14.1407 43.8867 14.1546Z" fill="#F95E5A"/>
<path d="M38.3716 14.2568C38.3716 14.2568 40.0189 13.6087 41.277 14.2568C42.5351 14.9048 44.0025 13.9688 44.0025 13.9688C44.0025 13.9688 43.5409 14.8895 42.3671 15.2136C42.3671 15.2136 42.9262 15.7535 43.9047 15.3369C43.9047 15.3369 42.6903 16.5353 41.0785 15.7618C39.7115 15.1055 38.3696 15.908 38.3696 15.908L38.3716 14.2568Z" fill="#EF4136"/>
<path d="M38.3699 14.0703H38.2058V19.3786H38.3699V14.0703Z" fill="#BE1E2D"/>
<path d="M38.9687 21.6617C39.2739 21.5574 39.6082 21.2285 39.4707 20.795C39.3331 20.3614 38.286 18.9336 38.286 18.9336C38.286 18.9336 37.2394 20.3619 37.1019 20.795C36.9645 21.228 37.2982 21.5573 37.6038 21.6617C37.9095 21.7661 37.8073 22.1513 37.473 22.3078C37.1386 22.4642 38.287 22.3758 38.287 22.3758C38.287 22.3758 39.4354 22.4641 39.101 22.3078C38.7667 22.1515 38.6633 21.766 38.9687 21.6617Z" fill="#EF4136"/>
<path d="M38.2058 19.043C37.9588 19.3857 37.2157 20.4342 37.1008 20.7945C36.9627 21.2279 37.2971 21.5568 37.6027 21.6612C37.9084 21.7657 37.8062 22.1509 37.4718 22.3073C37.3505 22.3642 37.4246 22.3886 37.5681 22.3967C37.6667 22.3478 37.7687 22.3075 37.8448 22.2739C38.0949 22.1635 38.321 21.9213 38.002 21.551C37.6829 21.1807 37.6367 21.1342 37.8184 20.3165C37.9195 19.8594 38.0821 19.3784 38.2058 19.043Z" fill="#F7941E"/>
<path d="M41.0753 14.165C39.8501 13.6752 38.3716 14.2566 38.3716 14.2566L38.3696 15.9078C38.3696 15.9078 38.4082 15.8844 38.4804 15.8489C39.1479 15.0513 40.0475 14.4551 41.0753 14.165Z" fill="#F95E5A"/>
<path d="M15.7567 39.3369L4.24561 39.1016L4.21716 49.1086H15.7343L15.7567 39.3369Z" fill="#F95E5A"/>
<path d="M4.23853 41.6158L9.84259 49.1086H15.7343L15.7567 39.3369L4.2456 39.1016L4.23853 41.6158Z" fill="#EF4136"/>
<path d="M11.6874 47.0435C11.6874 47.0435 12.6937 46.2411 11.6874 45.0684C11.6874 45.0684 12.1905 43.9886 11.3519 43.4019C10.5341 42.8297 9.98216 42.2634 9.6961 41.7028V41.6602C9.69263 41.6673 9.68889 41.6744 9.68542 41.6816C9.68182 41.6744 9.67808 41.6674 9.67461 41.6602V41.7028C9.38846 42.2617 8.83655 42.828 8.01886 43.4017C7.18024 43.9881 7.68333 45.0683 7.68333 45.0683C6.67701 46.2411 7.68333 47.0433 7.68333 47.0433C6.78885 47.9385 7.20816 49.1112 7.20816 49.1112L9.67461 49.509V49.5124L9.68542 49.5107L9.6961 49.5124V49.509L12.1625 49.1112C12.1625 49.1112 12.5819 47.9385 11.6874 47.0435Z" fill="#FBB040"/>
<path d="M9.68524 43.1328C9.10248 44.151 8.16746 44.3974 8.14417 45.9746V49.1064H11.2268V45.9747C11.203 44.3977 9.97405 44.0892 9.68524 43.1328Z" fill="#EF4136"/>
<path d="M11.6876 47.0435C11.6876 47.0435 12.6939 46.2411 11.6876 45.0684C11.6876 45.0684 12.1907 43.9886 11.352 43.4019C10.5343 42.8297 9.98236 42.2634 9.6963 41.7028V41.6602C9.69282 41.6673 9.68909 41.6744 9.68561 41.6816C9.68201 41.6744 9.67828 41.6674 9.6748 41.6602V41.7028C9.38866 42.2617 8.83674 42.828 8.01905 43.4017C7.18043 43.9881 7.68353 45.0683 7.68353 45.0683C7.48597 45.2986 7.36628 45.5145 7.30103 45.713L9.84276 49.1113H12.1627C12.1627 49.1113 12.5821 47.9385 11.6876 47.0435Z" fill="#F7941E"/>
<path d="M9.68524 43.1328C9.10248 44.151 8.16746 44.3974 8.14417 45.9746V46.8388L9.84059 49.1064H11.2268V45.9747C11.203 44.3977 9.97405 44.0892 9.68524 43.1328Z" fill="#BE1E2D"/>
<path d="M9.98688 22.7188C5.66404 22.7188 5.29248 38.9412 5.29248 38.9412H14.6813C14.6813 38.9412 14.3097 22.7188 9.98688 22.7188Z" fill="#F7941E"/>
<path d="M14.6813 38.9415C14.6813 38.9415 14.661 38.0578 14.5751 36.7031C11.3456 38.6514 7.64464 38.5884 5.31616 38.2648C5.29814 38.6955 5.29248 38.9415 5.29248 38.9415H14.6813Z" fill="#E07C0E"/>
<path d="M9.98709 24.4688C6.12951 24.4688 5.79797 38.9449 5.79797 38.9449H14.1765C14.1765 38.9449 13.8447 24.4688 9.98709 24.4688Z" fill="#EF4136"/>
<path d="M9.98686 38.9423H5.29245C5.29245 38.9423 5.50044 29.8679 7.41385 25.293C4.42668 27.0215 4.15344 38.9466 4.15344 38.9466H12.1761C12.1761 38.9466 12.1761 38.9449 12.1761 38.9423H9.98686Z" fill="#F95E5A"/>
<path d="M12.5602 25.293C14.4735 29.8682 14.6815 38.9423 14.6815 38.9423H7.79797C7.79797 38.9449 7.79797 38.9466 7.79797 38.9466H15.8206C15.8206 38.9466 15.5472 27.0215 12.5602 25.293Z" fill="#E02722"/>
<path d="M15.8205 38.9465C15.8205 38.9465 15.7919 37.7029 15.6532 35.9609C15.3074 36.2316 14.9476 36.4797 14.5755 36.7039C14.6615 38.0586 14.6819 38.9422 14.6819 38.9422H7.79797C7.79797 38.9448 7.79797 38.9465 7.79797 38.9465H15.8206H15.8205Z" fill="#A50F21"/>
<path d="M9.98695 27.8555C9.45168 31.0574 8.02039 32.0944 8.02039 36.055C8.02039 37.1403 8.90084 38.0202 9.98695 38.0202C11.0731 38.0202 11.9535 37.1403 11.9535 36.055C11.9535 32.0944 10.5222 31.0574 9.98695 27.8555Z" fill="#F7941E"/>
<path d="M11.2808 35.6152C11.0749 34.9497 10.7256 34.8534 10.4797 34.4594C10.2339 34.0653 11.0904 34.0128 11.1063 33.7589C11.1221 33.5049 10.2954 33.1503 10.2182 32.8221C10.1292 32.443 10.8562 32.3317 10.8209 31.7362C10.7922 31.2517 10.0795 29.6523 10.0795 29.6523C10.0795 29.6523 9.36673 31.2517 9.33803 31.7362C9.30264 32.3317 10.0297 32.443 9.94074 32.8221C9.86352 33.1503 9.03661 33.5049 9.0527 33.7589C9.06879 34.0128 9.92517 34.0653 9.67935 34.4594C9.43353 34.8534 9.08436 34.9497 8.87818 35.6152C8.672 36.2808 9.05219 37.7778 10.0046 37.953C10.0545 37.9617 10.1053 37.9617 10.1552 37.953C11.1063 37.7778 11.487 36.2806 11.2808 35.6152Z" fill="#EF4136"/>
<path d="M10.9817 33.5485C10.8689 33.3689 10.4893 33.1539 10.2738 32.9375C10.4186 33.1475 10.7869 33.3615 10.9817 33.5485Z" fill="#F95E5A"/>
<path d="M10.8977 34.9355C10.7892 34.7984 10.6738 34.6959 10.5654 34.5781C10.6694 34.7107 10.7851 34.8126 10.8977 34.9355Z" fill="#F95E5A"/>
<path d="M9.05687 33.7856C9.05422 33.7772 9.05257 33.7684 9.05198 33.7595C9.03615 33.5056 9.8628 33.1509 9.94002 32.8227C9.97104 32.6905 9.90295 32.5911 9.80257 32.4922C9.84671 32.5585 9.86769 32.63 9.84787 32.7147C9.77065 33.0429 8.94374 33.3977 8.95983 33.6516C8.96304 33.7031 9.0005 33.7463 9.05687 33.7856Z" fill="#F95E5A"/>
<path d="M8.87767 35.6149C9.08359 34.9494 9.43289 34.8531 9.67884 34.459C9.76455 34.3216 9.71603 34.2257 9.61603 34.1484C9.641 34.2053 9.63662 34.2709 9.58669 34.3512C9.34074 34.7452 8.99183 34.8415 8.78552 35.5069C8.63108 36.0043 8.80508 36.9656 9.30033 37.4931C8.87625 36.9507 8.73365 36.0799 8.87767 35.6149Z" fill="#F95E5A"/>
<path d="M9.46388 32.1523C9.38306 32.042 9.32772 31.9093 9.33814 31.7348C9.36388 31.3019 9.93558 29.9789 10.0569 29.7021C10.014 29.6026 9.98744 29.543 9.98744 29.543C9.98744 29.543 9.27418 31.1423 9.24509 31.627C9.23145 31.8623 9.33673 32.0219 9.46388 32.1523Z" fill="#F95E5A"/>
<path d="M17.9199 38.9414H2.05408C1.89969 38.9414 1.77454 39.0796 1.77454 39.25V39.2661C1.77454 39.4365 1.89969 39.5747 2.05408 39.5747H17.9199C18.0743 39.5747 18.1995 39.4365 18.1995 39.2661V39.25C18.1995 39.0796 18.0743 38.9414 17.9199 38.9414Z" fill="#F7941E"/>
<path d="M17.9197 39.2641H2.05408C2.0036 39.264 1.95409 39.2488 1.91077 39.2202C1.86746 39.1916 1.83195 39.1506 1.808 39.1016C1.78604 39.1464 1.77454 39.1965 1.77454 39.2475V39.2635C1.77474 39.3453 1.80426 39.4237 1.85664 39.4815C1.90902 39.5394 1.98 39.5719 2.05408 39.5722H17.9197C17.9938 39.5719 18.0647 39.5394 18.1171 39.4815C18.1695 39.4237 18.199 39.3453 18.1992 39.2635V39.2475C18.1993 39.1965 18.1878 39.1464 18.1658 39.1016C18.1418 39.1506 18.1063 39.1916 18.063 39.2202C18.0197 39.2488 17.9702 39.264 17.9197 39.2641V39.2641Z" fill="#BE1E2D"/>
<path d="M9.99865 30.2812C9.91821 30.8132 9.70264 30.9854 9.70264 31.6435C9.70264 31.7301 9.73382 31.8133 9.78934 31.8745C9.84485 31.9358 9.92014 31.9703 9.99865 31.9703C10.0772 31.9703 10.1525 31.9358 10.208 31.8745C10.2635 31.8133 10.2947 31.7301 10.2947 31.6435C10.2945 30.9854 10.0792 30.8132 9.99865 30.2812Z" fill="#F7941E"/>
<path d="M9.82542 31.7787C9.82542 31.2155 9.98308 31.0079 10.079 30.6262C10.0434 30.514 10.0166 30.3985 9.99865 30.2812C9.91821 30.8132 9.70264 30.9854 9.70264 31.6435C9.70266 31.7027 9.7173 31.7609 9.74499 31.8117C9.77267 31.8625 9.81235 31.9041 9.85978 31.9319C9.83713 31.8847 9.82533 31.8321 9.82542 31.7787V31.7787Z" fill="#FBB040"/>
<path d="M10.6372 36.0954C10.6372 36.2348 10.5998 36.3711 10.5297 36.487C10.4595 36.603 10.3598 36.6934 10.2431 36.7467C10.1265 36.8001 9.9981 36.8141 9.87424 36.7869C9.75037 36.7597 9.63659 36.6926 9.54728 36.594C9.45798 36.4954 9.39715 36.3698 9.37251 36.2331C9.34786 36.0964 9.3605 35.9546 9.40882 35.8258C9.45714 35.697 9.53898 35.5869 9.64398 35.5094C9.74898 35.432 9.87243 35.3906 9.99872 35.3906C10.168 35.3906 10.3304 35.4649 10.4502 35.597C10.5699 35.7292 10.6372 35.9085 10.6372 36.0954V36.0954Z" fill="#F7941E"/>
<path d="M9.5339 36.1676C9.5339 36.0624 9.55524 35.9585 9.59634 35.8636C9.63744 35.7687 9.69727 35.6851 9.77143 35.619C9.84559 35.553 9.93221 35.5061 10.0249 35.4818C10.1177 35.4575 10.2141 35.4564 10.3073 35.4786C10.227 35.4296 10.1381 35.4003 10.0467 35.3926C9.95524 35.385 9.86337 35.3992 9.77733 35.4342C9.69129 35.4693 9.6131 35.5244 9.54808 35.5958C9.48305 35.6672 9.43273 35.7532 9.40052 35.848C9.36832 35.9428 9.35499 36.0441 9.36145 36.1451C9.3679 36.2461 9.39399 36.3444 9.43793 36.4333C9.48188 36.5222 9.54265 36.5995 9.61611 36.6602C9.68957 36.7208 9.77399 36.7632 9.86364 36.7846C9.76372 36.7237 9.68042 36.6343 9.62242 36.5258C9.56443 36.4173 9.53386 36.2936 9.5339 36.1676V36.1676Z" fill="#FBB040"/>
<path d="M5.29248 38.9395H8.02855C8.08351 38.241 7.78608 37.459 7.43653 36.8879C6.70975 35.6996 6.78015 33.2931 7.29676 31.9654C7.81337 30.6377 7.99561 29.2799 8.02006 27.2125C8.04451 25.1451 8.68043 24.219 9.00193 23.7869C9.29125 23.398 9.25212 23.2484 9.06821 22.9844C5.60986 25.0893 5.29248 38.9395 5.29248 38.9395Z" fill="#FBB040"/>
<path d="M8.02053 27.2147C8.0267 26.689 8.07265 26.2367 8.14279 25.8477C6.01484 29.464 5.79797 38.9448 5.79797 38.9448H8.02851C8.08475 38.2456 7.7868 37.4619 7.43648 36.8901C6.7097 35.7018 6.7801 33.2952 7.29671 31.9676C7.81332 30.6399 7.99607 29.2825 8.02053 27.2147Z" fill="#F7941E"/>
<path d="M12.0212 22.7579C12.0212 23.0318 11.1105 23.2541 9.9871 23.2541C8.86366 23.2541 7.95361 23.0318 7.95361 22.7579C7.95361 22.4839 8.86431 22.2617 9.98775 22.2617C11.1112 22.2617 12.0212 22.4838 12.0212 22.7579Z" fill="#BE1E2D"/>
<path d="M9.54582 22.2734C8.63461 22.3226 7.95288 22.5207 7.95288 22.7578C7.95288 22.9633 8.46473 23.1395 9.19434 23.2149C9.16307 23.1172 9.09434 23.0193 9.00232 22.8929C8.76499 22.5667 9.29576 22.3838 9.54582 22.2734Z" fill="#EF4136"/>
<path d="M10.6614 25.9006H10.0436V25.2635H10.6614C10.7024 25.2635 10.736 25.235 10.736 25.2001C10.736 25.1651 10.7024 25.1367 10.6614 25.1367H9.98673C9.9552 25.1367 9.92933 25.1738 9.92933 25.2191V25.9012H9.35223V25.2191C9.35223 25.1738 9.32649 25.1367 9.2947 25.1367C9.26291 25.1367 9.23743 25.1738 9.23743 25.2191V25.964C9.23743 25.9988 9.27102 26.0273 9.3122 26.0273H9.92933V26.6645H9.3122C9.27102 26.6645 9.23743 26.6929 9.23743 26.7278C9.23743 26.7628 9.27102 26.7912 9.3122 26.7912H9.98673C10.0183 26.7912 10.0441 26.7541 10.0441 26.7086V26.0266H10.6212V26.7086C10.6212 26.7541 10.647 26.7912 10.6786 26.7912C10.7103 26.7912 10.736 26.7541 10.736 26.7086V25.964C10.736 25.9291 10.7024 25.9006 10.6614 25.9006Z" fill="#FBB040"/>
<path d="M10.3061 26.5067C10.3713 26.5067 10.4242 26.4483 10.4242 26.3764C10.4242 26.3044 10.3713 26.2461 10.3061 26.2461C10.2409 26.2461 10.1881 26.3044 10.1881 26.3764C10.1881 26.4483 10.2409 26.5067 10.3061 26.5067Z" fill="#FBB040"/>
<path d="M9.74605 26.3764C9.74605 26.4022 9.73913 26.4273 9.72616 26.4488C9.71319 26.4702 9.69476 26.4869 9.67319 26.4968C9.65163 26.5066 9.6279 26.5092 9.605 26.5042C9.58211 26.4992 9.56108 26.4867 9.54458 26.4685C9.52807 26.4503 9.51683 26.4271 9.51228 26.4018C9.50772 26.3765 9.51006 26.3503 9.51899 26.3265C9.52793 26.3027 9.54305 26.2824 9.56246 26.2681C9.58187 26.2537 9.60469 26.2461 9.62803 26.2461C9.64353 26.2461 9.65889 26.2494 9.67321 26.256C9.68754 26.2625 9.70056 26.2721 9.71152 26.2842C9.72248 26.2963 9.73117 26.3107 9.7371 26.3265C9.74302 26.3423 9.74607 26.3593 9.74605 26.3764Z" fill="#FBB040"/>
<path d="M10.4237 25.5873C10.4237 25.6131 10.4167 25.6383 10.4038 25.6597C10.3908 25.6812 10.3723 25.6979 10.3508 25.7077C10.3292 25.7176 10.3055 25.7201 10.2826 25.7151C10.2597 25.7101 10.2386 25.6976 10.2221 25.6794C10.2056 25.6612 10.1944 25.6379 10.1899 25.6127C10.1853 25.5874 10.1877 25.5612 10.1966 25.5374C10.2056 25.5136 10.2207 25.4932 10.2402 25.4789C10.2596 25.4646 10.2824 25.457 10.3058 25.457C10.337 25.4571 10.367 25.4708 10.3891 25.4952C10.4112 25.5197 10.4237 25.5528 10.4237 25.5873Z" fill="#FBB040"/>
<path d="M9.74605 25.5873C9.74605 25.6131 9.73913 25.6383 9.72616 25.6597C9.71319 25.6811 9.69476 25.6978 9.67319 25.7077C9.65163 25.7176 9.6279 25.7201 9.605 25.7151C9.58211 25.7101 9.56108 25.6977 9.54458 25.6795C9.52807 25.6612 9.51683 25.638 9.51228 25.6127C9.50772 25.5875 9.51006 25.5613 9.51899 25.5375C9.52793 25.5137 9.54305 25.4933 9.56246 25.479C9.58187 25.4647 9.60469 25.457 9.62803 25.457C9.65933 25.457 9.68935 25.4708 9.71148 25.4952C9.73362 25.5196 9.74605 25.5528 9.74605 25.5873V25.5873Z" fill="#FBB040"/>
<path d="M4.79186 36.727C5.04451 36.6406 5.32122 36.3682 5.20693 36.0096C5.09264 35.6509 4.22635 34.4688 4.22635 34.4688C4.22635 34.4688 3.36006 35.6509 3.24577 36.0096C3.13148 36.3682 3.40819 36.6406 3.66083 36.727C3.91347 36.8134 3.8293 37.1322 3.55259 37.2616C3.27588 37.3911 4.22635 37.3185 4.22635 37.3185C4.22635 37.3185 5.17681 37.3915 4.9001 37.2616C4.62339 37.1318 4.53935 36.8132 4.79186 36.727Z" fill="#F7941E"/>
<path d="M4.31877 37.2608C4.73808 36.7362 3.92738 36.3503 3.89933 35.7178C3.8826 35.3394 4.03588 34.8728 4.16188 34.5586C3.95866 34.8406 3.34166 35.7108 3.24642 36.0096C3.13201 36.3682 3.40884 36.6406 3.66149 36.727C3.91413 36.8134 3.82996 37.1322 3.55325 37.2617C3.27654 37.3911 4.227 37.3185 4.227 37.3185L4.26819 37.3214C4.28492 37.3012 4.30178 37.2819 4.31877 37.2608Z" fill="#FBB040"/>
<path d="M4.2265 37.1953C2.78298 37.1953 2.67603 37.4413 2.67603 37.7448V38.9476H5.77684V37.7448C5.77684 37.4413 5.70644 37.1953 4.2265 37.1953Z" fill="#BE1E2D"/>
<path d="M3.53678 38.2174C3.48221 37.7082 3.89882 37.7853 4.31826 37.2607C4.33386 37.2411 4.34847 37.2206 4.36202 37.1992C4.31826 37.1992 4.27296 37.1992 4.2265 37.1992C2.78298 37.1992 2.67603 37.4452 2.67603 37.7487V38.9515H3.83936C3.74927 38.6971 3.56072 38.4409 3.53678 38.2174Z" fill="#EF4136"/>
<path d="M5.36399 45.2473C4.80491 43.4814 5.07519 41.1719 5.07519 41.1719H3.37825C3.37825 41.1719 3.64852 43.4814 3.08957 45.2473C2.53062 47.0131 2.90308 47.6247 3.08957 47.9869C3.25328 48.3052 4.03849 48.3089 4.22678 48.305C4.41507 48.3089 5.20028 48.305 5.36399 47.9869C5.55035 47.6247 5.92307 47.0133 5.36399 45.2473Z" fill="#F7941E"/>
<path d="M3.60798 45.777C3.16062 44.8818 4.61443 42.7525 4.00567 42.0567C3.72832 41.7398 3.56924 41.4397 3.51493 41.1719H3.37825C3.37825 41.1719 3.64852 43.4814 3.08957 45.2473C2.53062 47.0131 2.90308 47.6247 3.08957 47.9869C3.23114 48.2627 3.83952 48.3022 4.12202 48.3054C4.15201 48.2188 4.18637 48.1294 4.22678 48.0365C4.70594 46.932 4.05497 46.672 3.60798 45.777Z" fill="#FBB040"/>
<path d="M4.2265 41.5024C5.67002 41.5024 5.77684 41.2317 5.77684 40.8978V39.5742H2.67603V40.8978C2.67603 41.2317 2.74655 41.5024 4.2265 41.5024Z" fill="#BE1E2D"/>
<path d="M2.67603 40.8982C2.67603 41.1787 2.72596 41.4146 3.61928 41.4828C3.4086 41.0281 3.46767 40.6395 3.74721 40.3745C3.97244 40.1613 3.93833 39.8232 3.86896 39.5742H2.67603V40.8982Z" fill="#E02722"/>
<path d="M5.72562 41.6601C5.72562 41.8822 5.05457 42.0623 4.22688 42.0623C3.3992 42.0623 2.72815 41.8822 2.72815 41.6601C2.72815 41.438 3.39907 41.2578 4.22688 41.2578C5.05469 41.2578 5.72562 41.4378 5.72562 41.6601Z" fill="#EF4136"/>
<path d="M4.00539 42.0573C3.77141 41.79 3.62186 41.5348 3.54798 41.3008C3.06149 41.3673 2.72815 41.5028 2.72815 41.6594C2.72815 41.861 3.28273 42.0286 4.00539 42.0573Z" fill="#F95E5A"/>
<path d="M16.3126 36.727C16.5653 36.6406 16.8421 36.3682 16.7277 36.0096C16.6133 35.6509 15.7471 34.4688 15.7471 34.4688C15.7471 34.4688 14.8808 35.6509 14.7665 36.0096C14.6522 36.3682 14.9289 36.6406 15.1817 36.727C15.4345 36.8134 15.3501 37.1322 15.0733 37.2616C14.7966 37.3911 15.7471 37.3185 15.7471 37.3185C15.7471 37.3185 16.6977 37.3915 16.4209 37.2616C16.144 37.1318 16.06 36.8132 16.3126 36.727Z" fill="#F7941E"/>
<path d="M15.8389 37.2608C16.2582 36.7362 15.4475 36.3503 15.4196 35.7178C15.4028 35.3394 15.5561 34.8728 15.682 34.5586C15.4788 34.8406 14.8618 35.7108 14.7665 36.0096C14.6522 36.3682 14.9289 36.6406 15.1817 36.727C15.4345 36.8134 15.3501 37.1322 15.0733 37.2617C14.7966 37.3911 15.7471 37.3185 15.7471 37.3185L15.7883 37.3214C15.8051 37.3012 15.8217 37.2819 15.8389 37.2608Z" fill="#FBB040"/>
<path d="M15.7468 37.1953C14.3034 37.1953 14.1964 37.4413 14.1964 37.7448V38.9476H17.2971V37.7448C17.2971 37.4413 17.2267 37.1953 15.7468 37.1953Z" fill="#BE1E2D"/>
<path d="M15.0572 38.2174C15.0025 37.7082 15.4192 37.7853 15.8385 37.2607C15.8541 37.2411 15.8687 37.2206 15.8823 37.1992C15.8385 37.1992 15.7933 37.1992 15.7468 37.1992C14.3034 37.1992 14.1964 37.4452 14.1964 37.7487V38.9515H15.3599C15.2694 38.6971 15.081 38.4409 15.0572 38.2174Z" fill="#EF4136"/>
<path d="M16.8845 45.2473C16.3254 43.4814 16.5957 41.1719 16.5957 41.1719H14.8988C14.8988 41.1719 15.1691 43.4814 14.61 45.2473C14.0509 47.0131 14.4236 47.6247 14.61 47.9869C14.7737 48.3052 15.5589 48.3089 15.7472 48.305C15.9356 48.3089 16.7208 48.305 16.8845 47.9869C17.0709 47.6247 17.4435 47.0133 16.8845 45.2473Z" fill="#F7941E"/>
<path d="M15.128 45.777C14.6806 44.8818 16.1346 42.7525 15.5257 42.0567C15.2483 41.7398 15.0894 41.4397 15.035 41.1719H14.8988C14.8988 41.1719 15.1691 43.4814 14.61 45.2473C14.0509 47.0131 14.4236 47.6247 14.61 47.9869C14.7515 48.2627 15.3599 48.3022 15.6424 48.3054C15.6724 48.2188 15.7068 48.1294 15.7472 48.0365C16.2265 46.932 15.5755 46.672 15.128 45.777Z" fill="#FBB040"/>
<path d="M15.7469 41.5024C17.1903 41.5024 17.2971 41.2317 17.2971 40.8978V39.5742H14.1964V40.8978C14.1964 41.2317 14.2668 41.5024 15.7469 41.5024Z" fill="#BE1E2D"/>
<path d="M14.1964 40.8982C14.1964 41.1787 14.2462 41.4146 15.1395 41.4828C14.9289 41.0281 14.9881 40.6395 15.2675 40.3745C15.4927 40.1613 15.4586 39.8232 15.3892 39.5742H14.1964V40.8982Z" fill="#E02722"/>
<path d="M17.2459 41.6601C17.2459 41.8822 16.5748 42.0623 15.7471 42.0623C14.9195 42.0623 14.2485 41.8822 14.2485 41.6601C14.2485 41.438 14.9195 41.2578 15.7471 41.2578C16.5748 41.2578 17.2459 41.4378 17.2459 41.6601Z" fill="#EF4136"/>
<path d="M15.5256 42.0573C15.2918 41.79 15.1421 41.5348 15.0682 41.3008C14.5819 41.3673 14.2485 41.5028 14.2485 41.6594C14.2484 41.861 14.8029 42.0286 15.5256 42.0573Z" fill="#F95E5A"/>
<path d="M14.1762 38.9426C14.1762 38.9426 14.1585 38.1693 14.0835 36.9805C11.2031 38.521 8.02915 38.5719 5.8196 38.3258C5.80325 38.7184 5.79797 38.9426 5.79797 38.9426H14.1765H14.1762Z" fill="#BE1E2D"/>
<path d="M8.01255 38.4374C7.28029 38.4463 6.54815 38.4098 5.8196 38.3281C5.80325 38.7206 5.79797 38.9449 5.79797 38.9449H8.02851C8.04105 38.7756 8.03569 38.6053 8.01255 38.4374V38.4374Z" fill="#E07C0E"/>
<path d="M15.5882 14.1546C15.6307 14.0957 15.6694 14.0336 15.7041 13.9688C15.7041 13.9687 15.6042 14.0324 15.4344 14.115C15.4861 14.1275 15.5374 14.1407 15.5882 14.1546Z" fill="#F95E5A"/>
<path d="M10.0731 14.2568C10.0731 14.2568 11.7205 13.6087 12.9785 14.2568C14.2366 14.9048 15.7041 13.9688 15.7041 13.9688C15.7041 13.9688 15.2424 14.8895 14.0686 15.2136C14.0686 15.2136 14.6277 15.7535 15.6063 15.3369C15.6063 15.3369 14.3918 16.5353 12.7801 15.7618C11.413 15.1055 10.0712 15.908 10.0712 15.908L10.0731 14.2568Z" fill="#EF4136"/>
<path d="M10.0714 14.0703H9.90735V19.3786H10.0714V14.0703Z" fill="#BE1E2D"/>
<path d="M10.6703 21.6617C10.9754 21.5574 11.3098 21.2285 11.1722 20.795C11.0346 20.3614 9.9875 18.9336 9.9875 18.9336C9.9875 18.9336 8.9409 20.3619 8.80344 20.795C8.66599 21.228 8.99971 21.5573 9.30538 21.6617C9.61105 21.7661 9.50886 22.1513 9.17449 22.3078C8.84012 22.4642 9.98853 22.3758 9.98853 22.3758C9.98853 22.3758 11.1369 22.4641 10.8026 22.3078C10.4682 22.1515 10.3649 21.766 10.6703 21.6617Z" fill="#EF4136"/>
<path d="M9.90735 19.043C9.66037 19.3857 8.91725 20.4342 8.80232 20.7945C8.66422 21.2279 8.99859 21.5568 9.30426 21.6612C9.60992 21.7657 9.50773 22.1509 9.17337 22.3073C9.052 22.3642 9.12613 22.3886 9.26963 22.3967C9.36822 22.3478 9.47028 22.3075 9.54634 22.2739C9.79641 22.1635 10.0225 21.9213 9.70349 21.551C9.38444 21.1807 9.33823 21.1342 9.51996 20.3165C9.62099 19.8594 9.78367 19.3784 9.90735 19.043Z" fill="#F7941E"/>
<path d="M12.7769 14.165C11.5516 13.6752 10.0731 14.2566 10.0731 14.2566L10.0712 15.9078C10.0712 15.9078 10.1098 15.8844 10.182 15.8489C10.8494 15.0513 11.7491 14.4551 12.7769 14.165Z" fill="#F95E5A"/>
<g filter="url(#filter0_f_8320_49085)">
<circle cx="25.2537" cy="45.6726" r="10.5672" fill="#86000D"/>
</g>
<path d="M31.512 36.5558L16.5511 36.25L16.5142 49.2561H31.4829L31.512 36.5558Z" fill="#F95E5A"/>
<path d="M16.5421 39.5178L23.8257 49.2561H31.4831L31.5122 36.5558L16.5513 36.25L16.5421 39.5178Z" fill="#EF4136"/>
<path d="M26.2233 46.567C26.2233 46.567 27.5312 45.5241 26.2233 44C26.2233 44 26.8771 42.5965 25.7872 41.834C24.7243 41.0904 24.007 40.3543 23.6352 39.6257V39.5703C23.6307 39.5795 23.6258 39.5888 23.6213 39.5982C23.6166 39.5888 23.6118 39.5797 23.6073 39.5703V39.6257C23.2354 40.3521 22.518 41.0881 21.4553 41.8338C20.3654 42.596 21.0192 43.9999 21.0192 43.9999C19.7113 45.5241 21.0192 46.5668 21.0192 46.5668C19.8567 47.7302 20.4017 49.2543 20.4017 49.2543L23.6073 49.7714V49.7758L23.6213 49.7736L23.6352 49.7758V49.7714L26.8408 49.2543C26.8408 49.2543 27.3858 47.7302 26.2233 46.567Z" fill="#FBB040"/>
<path d="M23.6211 41.4883C22.8637 42.8116 21.6484 43.1319 21.6182 45.1817V49.2521H25.6247V45.1819C25.5937 43.1322 23.9965 42.7313 23.6211 41.4883Z" fill="#EF4136"/>
<path d="M26.2235 46.567C26.2235 46.567 27.5314 45.5241 26.2235 44C26.2235 44 26.8774 42.5965 25.7874 41.834C24.7246 41.0904 24.0073 40.3543 23.6355 39.6257V39.5703C23.6309 39.5795 23.6261 39.5888 23.6216 39.5982C23.6169 39.5888 23.612 39.5797 23.6075 39.5703V39.6257C23.2356 40.3521 22.5183 41.0881 21.4556 41.8338C20.3656 42.596 21.0195 43.9999 21.0195 43.9999C20.7627 44.2992 20.6071 44.5797 20.5223 44.8377L23.8258 49.2545H26.8411C26.8411 49.2545 27.3861 47.7302 26.2235 46.567Z" fill="#F7941E"/>
<path d="M23.6211 41.4883C22.8637 42.8116 21.6484 43.1319 21.6182 45.1817V46.3049L23.823 49.2521H25.6247V45.1819C25.5937 43.1322 23.9965 42.7313 23.6211 41.4883Z" fill="#BE1E2D"/>
<path d="M24.013 14.9531C18.3947 14.9531 17.9117 36.0373 17.9117 36.0373H30.1143C30.1143 36.0373 29.6314 14.9531 24.013 14.9531Z" fill="#F7941E"/>
<path d="M30.1143 36.038C30.1143 36.038 30.0879 34.8896 29.9763 33.1289C25.7789 35.6611 20.9688 35.5791 17.9425 35.1586C17.9191 35.7184 17.9117 36.038 17.9117 36.038H30.1143Z" fill="#E07C0E"/>
<path d="M24.0133 17.2266C18.9996 17.2266 18.5687 36.0411 18.5687 36.0411H29.4582C29.4582 36.0411 29.027 17.2266 24.0133 17.2266Z" fill="#EF4136"/>
<path d="M24.0131 36.0368H17.9118C17.9118 36.0368 18.1821 24.2429 20.6689 18.2969C16.7865 20.5434 16.4314 36.0424 16.4314 36.0424H26.8584C26.8584 36.0424 26.8584 36.0402 26.8584 36.0368H24.0131Z" fill="#F95E5A"/>
<path d="M27.3578 18.2969C29.8445 24.2433 30.1148 36.0368 30.1148 36.0368H21.1683C21.1683 36.0402 21.1683 36.0424 21.1683 36.0424H31.5953C31.5953 36.0424 31.24 20.5434 27.3578 18.2969Z" fill="#E02722"/>
<path d="M31.5951 36.0444C31.5951 36.0444 31.558 34.4281 31.3777 32.1641C30.9283 32.5158 30.4606 32.8383 29.9771 33.1297C30.0888 34.8904 30.1153 36.0389 30.1153 36.0389H21.1683C21.1683 36.0422 21.1683 36.0444 21.1683 36.0444H31.5953H31.5951Z" fill="#A50F21"/>
<path d="M24.0132 21.6289C23.3175 25.7905 21.4573 27.1382 21.4573 32.2858C21.4573 33.6963 22.6016 34.84 24.0132 34.84C25.4248 34.84 26.5691 33.6963 26.5691 32.2858C26.5691 27.1382 24.7089 25.7905 24.0132 21.6289Z" fill="#F7941E"/>
<path d="M25.6946 31.7148C25.427 30.8498 24.973 30.7246 24.6535 30.2125C24.334 29.7004 25.4472 29.6321 25.4678 29.3021C25.4884 28.972 24.414 28.5111 24.3136 28.0845C24.1979 27.5918 25.1428 27.4472 25.097 26.6732C25.0597 26.0435 24.1333 23.9648 24.1333 23.9648C24.1333 23.9648 23.207 26.0435 23.1697 26.6732C23.1237 27.4472 24.0686 27.5918 23.953 28.0845C23.8526 28.5111 22.7779 28.972 22.7988 29.3021C22.8197 29.6321 23.9328 29.7004 23.6133 30.2125C23.2938 30.7246 22.84 30.8498 22.572 31.7148C22.304 32.5798 22.7981 34.5255 24.036 34.7532C24.1008 34.7645 24.1668 34.7645 24.2317 34.7532C25.4678 34.5255 25.9626 32.5796 25.6946 31.7148Z" fill="#EF4136"/>
<path d="M25.3061 29.0285C25.1596 28.795 24.6661 28.5156 24.3861 28.2344C24.5743 28.5073 25.053 28.7854 25.3061 29.0285Z" fill="#F95E5A"/>
<path d="M25.1969 30.8355C25.0559 30.6573 24.9059 30.5242 24.765 30.3711C24.9002 30.5434 25.0506 30.6758 25.1969 30.8355Z" fill="#F95E5A"/>
<path d="M22.8043 29.3373C22.8008 29.3263 22.7987 29.3149 22.7979 29.3033C22.7774 28.9733 23.8517 28.5124 23.9521 28.0858C23.9924 27.9141 23.9039 27.7848 23.7735 27.6562C23.8308 27.7425 23.8581 27.8354 23.8323 27.9454C23.732 28.372 22.6572 28.8332 22.6782 29.1632C22.6823 29.23 22.731 29.2862 22.8043 29.3373Z" fill="#F95E5A"/>
<path d="M22.5715 31.7146C22.8392 30.8496 23.2932 30.7244 23.6128 30.2123C23.7242 30.0337 23.6612 29.9091 23.5312 29.8086C23.5636 29.8825 23.5579 29.9678 23.493 30.0721C23.1734 30.5842 22.7199 30.7094 22.4518 31.5742C22.251 32.2206 22.4772 33.4701 23.1209 34.1556C22.5697 33.4507 22.3844 32.3188 22.5715 31.7146Z" fill="#F95E5A"/>
<path d="M23.3334 27.2155C23.2284 27.0722 23.1564 26.8997 23.17 26.673C23.2034 26.1103 23.9465 24.3908 24.1042 24.0311C24.0483 23.9018 24.0139 23.8242 24.0139 23.8242C24.0139 23.8242 23.0868 25.9029 23.049 26.5328C23.0313 26.8386 23.1681 27.046 23.3334 27.2155Z" fill="#F95E5A"/>
<path d="M34.3237 36.0391H13.7029C13.5023 36.0391 13.3396 36.2186 13.3396 36.4402V36.461C13.3396 36.6826 13.5023 36.8621 13.7029 36.8621H34.3237C34.5243 36.8621 34.687 36.6826 34.687 36.461V36.4402C34.687 36.2186 34.5243 36.0391 34.3237 36.0391Z" fill="#F7941E"/>
<path d="M34.3234 36.4613H13.7029C13.6373 36.4611 13.573 36.4414 13.5167 36.4042C13.4604 36.367 13.4142 36.3138 13.3831 36.25C13.3546 36.3083 13.3396 36.3734 13.3396 36.4397V36.4605C13.3399 36.5668 13.3782 36.6687 13.4463 36.7438C13.5144 36.819 13.6066 36.8613 13.7029 36.8616H34.3234C34.4196 36.8613 34.5119 36.819 34.58 36.7438C34.648 36.6687 34.6864 36.5668 34.6867 36.4605V36.4397C34.6867 36.3734 34.6718 36.3082 34.6432 36.25C34.6121 36.3138 34.5659 36.367 34.5096 36.4042C34.4533 36.4414 34.389 36.4611 34.3234 36.4613V36.4613Z" fill="#BE1E2D"/>
<path d="M24.0284 24.7852C23.9239 25.4766 23.6437 25.7004 23.6437 26.5556C23.6437 26.6683 23.6842 26.7763 23.7564 26.8559C23.8285 26.9356 23.9264 26.9804 24.0284 26.9804C24.1304 26.9804 24.2283 26.9356 24.3004 26.8559C24.3726 26.7763 24.4131 26.6683 24.4131 26.5556C24.413 25.7004 24.1331 25.4766 24.0284 24.7852Z" fill="#F7941E"/>
<path d="M23.8033 26.7314C23.8033 25.9994 24.0082 25.7296 24.1328 25.2335C24.0866 25.0876 24.0517 24.9376 24.0284 24.7852C23.9239 25.4766 23.6437 25.7004 23.6437 26.5556C23.6437 26.6327 23.6627 26.7083 23.6987 26.7743C23.7347 26.8403 23.7863 26.8943 23.8479 26.9305C23.8185 26.8692 23.8031 26.8008 23.8033 26.7314V26.7314Z" fill="#FBB040"/>
<path d="M24.8584 32.3418C24.8584 32.523 24.8098 32.7001 24.7186 32.8508C24.6275 33.0015 24.4979 33.1189 24.3463 33.1883C24.1946 33.2577 24.0278 33.2758 23.8668 33.2405C23.7058 33.2052 23.5579 33.1179 23.4418 32.9898C23.3258 32.8617 23.2467 32.6985 23.2147 32.5207C23.1827 32.343 23.1991 32.1588 23.2619 31.9914C23.3247 31.824 23.431 31.6809 23.5675 31.5802C23.704 31.4795 23.8644 31.4258 24.0286 31.4258C24.2486 31.4258 24.4597 31.5223 24.6153 31.6941C24.7709 31.8658 24.8584 32.0988 24.8584 32.3418V32.3418Z" fill="#F7941E"/>
<path d="M23.4244 32.4356C23.4244 32.2989 23.4522 32.1639 23.5056 32.0405C23.559 31.9171 23.6368 31.8085 23.7332 31.7227C23.8295 31.6368 23.9421 31.5758 24.0626 31.5442C24.1831 31.5127 24.3085 31.5113 24.4296 31.5402C24.3253 31.4765 24.2098 31.4384 24.0909 31.4284C23.972 31.4184 23.8526 31.4369 23.7408 31.4824C23.629 31.528 23.5274 31.5996 23.4429 31.6924C23.3584 31.7852 23.2929 31.897 23.2511 32.0202C23.2092 32.1434 23.1919 32.2752 23.2003 32.4064C23.2087 32.5377 23.2426 32.6654 23.2997 32.7809C23.3568 32.8964 23.4358 32.997 23.5313 33.0758C23.6268 33.1546 23.7365 33.2097 23.853 33.2375C23.7231 33.1584 23.6149 33.0422 23.5395 32.9012C23.4641 32.7602 23.4244 32.5994 23.4244 32.4356V32.4356Z" fill="#FBB040"/>
<path d="M17.9117 36.0376H21.4678C21.5392 35.1298 21.1527 34.1133 20.6983 33.3711C19.7538 31.8267 19.8453 28.6989 20.5167 26.9734C21.1881 25.2478 21.425 23.483 21.4568 20.7961C21.4885 18.1091 22.315 16.9054 22.7329 16.3438C23.1089 15.8384 23.0581 15.6439 22.819 15.3008C18.3242 18.0365 17.9117 36.0376 17.9117 36.0376Z" fill="#FBB040"/>
<path d="M21.4574 20.7963C21.4654 20.113 21.5251 19.5252 21.6163 19.0195C18.8506 23.7196 18.5687 36.0419 18.5687 36.0419H21.4677C21.5408 35.1331 21.1536 34.1144 20.6983 33.3713C19.7537 31.8269 19.8452 28.6991 20.5166 26.9735C21.1881 25.248 21.4256 23.4838 21.4574 20.7963Z" fill="#F7941E"/>
<path d="M26.6572 15.0042C26.6572 15.3603 25.4735 15.6491 24.0134 15.6491C22.5533 15.6491 21.3705 15.3603 21.3705 15.0042C21.3705 14.6482 22.5541 14.3594 24.0142 14.3594C25.4744 14.3594 26.6572 14.648 26.6572 15.0042Z" fill="#BE1E2D"/>
<path d="M23.4398 14.375C22.2556 14.4389 21.3695 14.6963 21.3695 15.0045C21.3695 15.2716 22.0348 15.5006 22.983 15.5986C22.9424 15.4716 22.8531 15.3443 22.7335 15.1802C22.425 14.7562 23.1148 14.5185 23.4398 14.375Z" fill="#EF4136"/>
<path d="M24.8898 19.0865H24.0869V18.2585H24.8898C24.9431 18.2585 24.9868 18.2215 24.9868 18.1761C24.9868 18.1307 24.9431 18.0938 24.8898 18.0938H24.0129C23.9719 18.0938 23.9383 18.1419 23.9383 18.2009V19.0873H23.1883V18.2009C23.1883 18.1419 23.1548 18.0938 23.1135 18.0938C23.0722 18.0938 23.0391 18.1419 23.0391 18.2009V19.1689C23.0391 19.2142 23.0827 19.2513 23.1362 19.2513H23.9383V20.0793H23.1362C23.0827 20.0793 23.0391 20.1163 23.0391 20.1617C23.0391 20.2071 23.0827 20.2441 23.1362 20.2441H24.0129C24.0539 20.2441 24.0875 20.1959 24.0875 20.1368V19.2504H24.8376V20.1368C24.8376 20.1959 24.871 20.2441 24.9122 20.2441C24.9533 20.2441 24.9868 20.1959 24.9868 20.1368V19.1689C24.9868 19.1237 24.9431 19.0865 24.8898 19.0865Z" fill="#FBB040"/>
<path d="M24.428 19.8738C24.5128 19.8738 24.5814 19.798 24.5814 19.7045C24.5814 19.611 24.5128 19.5352 24.428 19.5352C24.3433 19.5352 24.2747 19.611 24.2747 19.7045C24.2747 19.798 24.3433 19.8738 24.428 19.8738Z" fill="#FBB040"/>
<path d="M23.7001 19.7045C23.7001 19.738 23.6911 19.7707 23.6742 19.7986C23.6574 19.8264 23.6334 19.8481 23.6054 19.861C23.5774 19.8738 23.5465 19.8771 23.5168 19.8706C23.487 19.8641 23.4597 19.8479 23.4382 19.8242C23.4168 19.8006 23.4022 19.7704 23.3963 19.7375C23.3903 19.7047 23.3934 19.6706 23.405 19.6397C23.4166 19.6088 23.4363 19.5823 23.4615 19.5637C23.4867 19.5451 23.5164 19.5352 23.5467 19.5352C23.5668 19.5351 23.5868 19.5395 23.6054 19.548C23.624 19.5565 23.641 19.569 23.6552 19.5847C23.6695 19.6004 23.6808 19.6191 23.6885 19.6397C23.6962 19.6602 23.7001 19.6823 23.7001 19.7045Z" fill="#FBB040"/>
<path d="M24.5808 18.6811C24.5808 18.7146 24.5718 18.7473 24.555 18.7752C24.5381 18.803 24.5141 18.8247 24.4861 18.8375C24.4581 18.8503 24.4272 18.8537 24.3975 18.8471C24.3677 18.8406 24.3404 18.8244 24.3189 18.8007C24.2975 18.777 24.2829 18.7468 24.277 18.714C24.2711 18.6811 24.2741 18.6471 24.2858 18.6161C24.2974 18.5852 24.3171 18.5588 24.3423 18.5402C24.3676 18.5216 24.3973 18.5117 24.4276 18.5117C24.4683 18.5118 24.5072 18.5296 24.536 18.5614C24.5647 18.5931 24.5808 18.6362 24.5808 18.6811Z" fill="#FBB040"/>
<path d="M23.7001 18.6811C23.7001 18.7146 23.6911 18.7473 23.6742 18.7751C23.6574 18.803 23.6334 18.8247 23.6054 18.8375C23.5774 18.8503 23.5465 18.8537 23.5168 18.8472C23.487 18.8406 23.4597 18.8245 23.4382 18.8008C23.4168 18.7771 23.4022 18.7469 23.3963 18.7141C23.3903 18.6812 23.3934 18.6472 23.405 18.6163C23.4166 18.5853 23.4363 18.5589 23.4615 18.5403C23.4867 18.5217 23.5164 18.5117 23.5467 18.5117C23.5874 18.5117 23.6264 18.5296 23.6552 18.5613C23.6839 18.5931 23.7001 18.6361 23.7001 18.6811V18.6811Z" fill="#FBB040"/>
<path d="M17.2612 33.1576C17.5896 33.0454 17.9492 32.6914 17.8007 32.2252C17.6521 31.7591 16.5262 30.2227 16.5262 30.2227C16.5262 30.2227 15.4003 31.7591 15.2518 32.2252C15.1032 32.6914 15.4629 33.0454 15.7912 33.1576C16.1196 33.2699 16.0102 33.6843 15.6505 33.8526C15.2909 34.0208 16.5262 33.9264 16.5262 33.9264C16.5262 33.9264 17.7615 34.0214 17.4019 33.8526C17.0423 33.6838 16.933 33.2697 17.2612 33.1576Z" fill="#F7941E"/>
<path d="M16.6463 33.8519C17.1913 33.1701 16.1376 32.6686 16.1011 31.8464C16.0794 31.3546 16.2786 30.7482 16.4424 30.3398C16.1782 30.7064 15.3763 31.8373 15.2526 32.2257C15.1038 32.6918 15.4637 33.0458 15.792 33.1581C16.1204 33.2704 16.011 33.6848 15.6513 33.853C15.2917 34.0213 16.527 33.9269 16.527 33.9269L16.5805 33.9306C16.6023 33.9044 16.6242 33.8793 16.6463 33.8519Z" fill="#FBB040"/>
<path d="M16.5265 33.7734C14.6504 33.7734 14.5114 34.0931 14.5114 34.4876V36.0508H18.5415V34.4876C18.5415 34.0931 18.45 33.7734 16.5265 33.7734Z" fill="#BE1E2D"/>
<path d="M15.6301 35.0968C15.5592 34.4349 16.1006 34.5352 16.6458 33.8534C16.666 33.8279 16.685 33.8012 16.7026 33.7734C16.6458 33.7734 16.5869 33.7734 16.5265 33.7734C14.6504 33.7734 14.5114 34.0931 14.5114 34.4876V36.0508H16.0233C15.9062 35.7203 15.6612 35.3873 15.6301 35.0968Z" fill="#EF4136"/>
<path d="M18.0048 44.2343C17.2782 41.9392 17.6295 38.9375 17.6295 38.9375H15.424C15.424 38.9375 15.7753 41.9392 15.0488 44.2343C14.3223 46.5294 14.8064 47.3242 15.0488 47.7949C15.2616 48.2086 16.2821 48.2134 16.5268 48.2084C16.7715 48.2134 17.7921 48.2084 18.0048 47.7949C18.2471 47.3242 18.7315 46.5296 18.0048 44.2343Z" fill="#F7941E"/>
<path d="M15.7226 44.9227C15.1411 43.7593 17.0306 40.9918 16.2394 40.0875C15.879 39.6756 15.6722 39.2856 15.6016 38.9375H15.424C15.424 38.9375 15.7753 41.9392 15.0488 44.2343C14.3223 46.5294 14.8064 47.3242 15.0488 47.7949C15.2328 48.1534 16.0235 48.2047 16.3907 48.209C16.4296 48.0963 16.4743 47.9802 16.5268 47.8594C17.1496 46.4239 16.3035 46.086 15.7226 44.9227Z" fill="#FBB040"/>
<path d="M16.5265 39.3693C18.4026 39.3693 18.5415 39.0175 18.5415 38.5835V36.8633H14.5114V38.5835C14.5114 39.0175 14.603 39.3693 16.5265 39.3693Z" fill="#BE1E2D"/>
<path d="M14.5114 38.5841C14.5114 38.9486 14.5763 39.2552 15.7373 39.3438C15.4635 38.7528 15.5403 38.2478 15.9036 37.9034C16.1963 37.6263 16.152 37.1868 16.0618 36.8633H14.5114V38.5841Z" fill="#E02722"/>
<path d="M18.4748 39.5697C18.4748 39.8583 17.6026 40.0925 16.5269 40.0925C15.4511 40.0925 14.579 39.8583 14.579 39.5697C14.579 39.281 15.451 39.0469 16.5269 39.0469C17.6028 39.0469 18.4748 39.2809 18.4748 39.5697Z" fill="#EF4136"/>
<path d="M16.239 40.0887C15.9349 39.7413 15.7405 39.4096 15.6445 39.1055C15.0122 39.1919 14.579 39.3681 14.579 39.5716C14.579 39.8336 15.2998 40.0514 16.239 40.0887Z" fill="#F95E5A"/>
<path d="M18.4748 48.3822C18.4748 48.6708 17.6026 48.905 16.5269 48.905C15.4511 48.905 14.579 48.6703 14.579 48.3822C14.579 48.0941 15.451 47.8594 16.5269 47.8594C17.6028 47.8594 18.4748 48.0928 18.4748 48.3822Z" fill="#EF4136"/>
<path d="M14.579 48.3854C14.579 48.6459 15.2899 48.8622 16.2198 48.9024C16.2651 48.5885 16.3599 48.248 16.5269 47.8633C15.451 47.862 14.579 48.096 14.579 48.3854Z" fill="#F95E5A"/>
<path d="M32.2346 33.1576C32.563 33.0454 32.9228 32.6914 32.7741 32.2252C32.6254 31.7591 31.4996 30.2227 31.4996 30.2227C31.4996 30.2227 30.3737 31.7591 30.2252 32.2252C30.0766 32.6914 30.4363 33.0454 30.7648 33.1576C31.0933 33.2699 30.9836 33.6843 30.6239 33.8526C30.2643 34.0208 31.4996 33.9264 31.4996 33.9264C31.4996 33.9264 32.7351 34.0214 32.3753 33.8526C32.0155 33.6838 31.9062 33.2697 32.2346 33.1576Z" fill="#F7941E"/>
<path d="M31.6189 33.8519C32.1638 33.1701 31.1102 32.6686 31.0739 31.8464C31.0522 31.3546 31.2514 30.7482 31.415 30.3398C31.1508 30.7064 30.3489 31.8373 30.2252 32.2257C30.0766 32.6918 30.4363 33.0458 30.7648 33.1581C31.0933 33.2704 30.9836 33.6848 30.6239 33.853C30.2643 34.0213 31.4996 33.9269 31.4996 33.9269L31.5531 33.9306C31.575 33.9044 31.5966 33.8793 31.6189 33.8519Z" fill="#FBB040"/>
<path d="M31.4992 33.7734C29.6233 33.7734 29.4843 34.0931 29.4843 34.4876V36.0508H33.5142V34.4876C33.5142 34.0931 33.4227 33.7734 31.4992 33.7734Z" fill="#BE1E2D"/>
<path d="M30.603 35.0968C30.5319 34.4349 31.0735 34.5352 31.6185 33.8534C31.6388 33.8279 31.6577 33.8012 31.6754 33.7734C31.6185 33.7734 31.5598 33.7734 31.4992 33.7734C29.6233 33.7734 29.4843 34.0931 29.4843 34.4876V36.0508H30.9964C30.8788 35.7203 30.6339 35.3873 30.603 35.0968Z" fill="#EF4136"/>
<path d="M32.9779 44.2343C32.2513 41.9392 32.6026 38.9375 32.6026 38.9375H30.3971C30.3971 38.9375 30.7483 41.9392 30.0217 44.2343C29.2951 46.5294 29.7795 47.3242 30.0217 47.7949C30.2345 48.2086 31.255 48.2134 31.4997 48.2084C31.7446 48.2134 32.7652 48.2084 32.9779 47.7949C33.2201 47.3242 33.7044 46.5296 32.9779 44.2343Z" fill="#F7941E"/>
<path d="M30.695 44.9227C30.1135 43.7593 32.0032 40.9918 31.2119 40.0875C30.8514 39.6756 30.6448 39.2856 30.574 38.9375H30.3971C30.3971 38.9375 30.7483 41.9392 30.0217 44.2343C29.2951 46.5294 29.7795 47.3242 30.0217 47.7949C30.2057 48.1534 30.9964 48.2047 31.3636 48.209C31.4026 48.0963 31.4472 47.9802 31.4997 47.8594C32.1227 46.4239 31.2766 46.086 30.695 44.9227Z" fill="#FBB040"/>
<path d="M31.4994 39.3693C33.3754 39.3693 33.5142 39.0175 33.5142 38.5835V36.8633H29.4843V38.5835C29.4843 39.0175 29.5758 39.3693 31.4994 39.3693Z" fill="#BE1E2D"/>
<path d="M29.4843 38.5841C29.4843 38.9486 29.549 39.2552 30.71 39.3438C30.4362 38.7528 30.5132 38.2478 30.8763 37.9034C31.169 37.6263 31.1247 37.1868 31.0345 36.8633H29.4843V38.5841Z" fill="#E02722"/>
<path d="M33.4476 39.5697C33.4476 39.8583 32.5755 40.0925 31.4997 40.0925C30.424 40.0925 29.552 39.8583 29.552 39.5697C29.552 39.281 30.424 39.0469 31.4997 39.0469C32.5755 39.0469 33.4476 39.2809 33.4476 39.5697Z" fill="#EF4136"/>
<path d="M31.2119 40.0887C30.9079 39.7413 30.7134 39.4096 30.6174 39.1055C29.9852 39.1919 29.552 39.3681 29.552 39.5716C29.5518 39.8336 30.2724 40.0514 31.2119 40.0887Z" fill="#F95E5A"/>
<path d="M33.4476 48.3822C33.4476 48.6708 32.5755 48.905 31.4997 48.905C30.424 48.905 29.552 48.6703 29.552 48.3822C29.552 48.0941 30.424 47.8594 31.4997 47.8594C32.5755 47.8594 33.4476 48.0928 33.4476 48.3822Z" fill="#EF4136"/>
<path d="M29.552 48.3854C29.552 48.6459 30.2629 48.8622 31.1926 48.9024C31.2381 48.5885 31.3328 48.248 31.4997 47.8633C30.424 47.862 29.552 48.096 29.552 48.3854Z" fill="#F95E5A"/>
<path d="M29.4579 36.0423C29.4579 36.0423 29.4348 35.0373 29.3374 33.4922C25.5937 35.4944 21.4686 35.5605 18.5968 35.2407C18.5756 35.7509 18.5687 36.0423 18.5687 36.0423H29.4582H29.4579Z" fill="#BE1E2D"/>
<path d="M21.447 35.3842C20.4953 35.3957 19.5437 35.3483 18.5968 35.2422C18.5756 35.7523 18.5687 36.0438 18.5687 36.0438H21.4677C21.484 35.8238 21.4771 35.6024 21.447 35.3842V35.3842Z" fill="#E07C0E"/>
<path d="M31.2933 3.82358C31.3484 3.74699 31.3987 3.66628 31.4438 3.58203C31.4438 3.58203 31.314 3.66476 31.0934 3.77206C31.1605 3.78831 31.2271 3.80548 31.2933 3.82358Z" fill="#F95E5A"/>
<path d="M24.1248 3.95638C24.1248 3.95638 26.2659 3.11409 27.901 3.95638C29.5361 4.79867 31.4434 3.58205 31.4434 3.58205C31.4434 3.58205 30.8434 4.77873 29.3178 5.19996C29.3178 5.19996 30.0445 5.90172 31.3162 5.36026C31.3162 5.36026 29.7378 6.91778 27.6431 5.91243C25.8663 5.05943 24.1223 6.10246 24.1223 6.10246L24.1248 3.95638Z" fill="#EF4136"/>
<path d="M24.1229 3.71484H23.9097V10.614H24.1229V3.71484Z" fill="#BE1E2D"/>
<path d="M24.9011 13.5809C25.2978 13.4453 25.7323 13.0178 25.5535 12.4544C25.3747 11.8909 24.0138 10.0352 24.0138 10.0352C24.0138 10.0352 22.6535 11.8915 22.4748 12.4544C22.2962 13.0172 22.7299 13.4451 23.1272 13.5809C23.5245 13.7166 23.3917 14.2172 22.9571 14.4206C22.5225 14.6239 24.0151 14.509 24.0151 14.509C24.0151 14.509 25.5077 14.6237 25.0731 14.4206C24.6385 14.2174 24.5042 13.7164 24.9011 13.5809Z" fill="#EF4136"/>
<path d="M23.9096 10.1758C23.5886 10.6212 22.6228 11.9839 22.4734 12.4522C22.2939 13.0155 22.7285 13.443 23.1258 13.5787C23.5231 13.7145 23.3902 14.2151 22.9557 14.4184C22.7979 14.4923 22.8943 14.5241 23.0808 14.5346C23.2089 14.4711 23.3416 14.4186 23.4404 14.375C23.7654 14.2315 24.0593 13.9167 23.6447 13.4354C23.23 12.9542 23.1699 12.8938 23.4061 11.831C23.5374 11.2369 23.7489 10.6118 23.9096 10.1758Z" fill="#F7941E"/>
<path d="M27.6389 3.83706C26.0465 3.20049 24.1248 3.95617 24.1248 3.95617L24.1223 6.10225C24.1223 6.10225 24.1725 6.07178 24.2663 6.02561C25.1338 4.98904 26.3031 4.21416 27.6389 3.83706Z" fill="#F95E5A"/>
</g>
<defs>
<filter id="filter0_f_8320_49085" x="-2.86572" y="17.5532" width="56.2388" height="56.2373" filterUnits="userSpaceOnUse" color-interpolation-filters="sRGB">
<feFlood flood-opacity="0" result="BackgroundImageFix"/>
<feBlend mode="normal" in="SourceGraphic" in2="BackgroundImageFix" result="shape"/>
<feGaussianBlur stdDeviation="8.77612" result="effect1_foregroundBlur_8320_49085"/>
</filter>
<linearGradient id="paint0_linear_8320_49085" x1="27.5821" y1="9.67164" x2="-30.9851" y2="-23.6418" gradientUnits="userSpaceOnUse">
<stop stop-color="#FFCF01"/>
<stop offset="1" stop-color="#FFD622" stop-opacity="0"/>
</linearGradient>
</defs>
</svg>
