<svg width="48" height="48" viewBox="0 0 48 48" fill="none" xmlns="http://www.w3.org/2000/svg">
<g clip-path="url(#clip0_8311_44478)">
<path d="M24 48C37.2548 48 48 37.2548 48 24C48 10.7452 37.2548 0 24 0C10.7452 0 0 10.7452 0 24C0 37.2548 10.7452 48 24 48Z" fill="#FFC400"/>
<path d="M47.9998 24C47.9998 23.3048 47.9685 22.617 47.9105 21.9368L34.2238 8.25L17.1486 12.6452V14.1621V21.7734L18.5623 20.0488L19.8748 16.9233H21.2934L18.5623 18.3242L18.5623 21.7734L18.5623 24V26.0625V28.3125L17.1486 32.625L15.5672 30.0886C14.6467 30.219 13.6711 30.5978 12.7692 31.2264C10.4764 32.8246 9.52985 35.4289 10.655 37.0432C10.7218 37.139 10.7944 37.2289 10.8725 37.3133L21.2934 47.8472C22.182 47.9469 23.0846 48 23.9998 48C37.2546 48 47.9998 37.2548 47.9998 24Z" fill="#FF9500"/>
<path d="M17.1487 12.6452V14.1621V30.1245C15.8545 29.8515 14.2168 30.2175 12.7692 31.2264C10.4764 32.8246 9.52985 35.4288 10.655 37.0432C11.7802 38.6575 14.5511 38.6707 16.8439 37.0725C18.6033 35.8463 19.5686 34.028 19.4149 32.5187H19.4322V19.2604L31.9403 16.0407V26.727C30.6461 26.454 29.0084 26.82 27.5608 27.8289C25.2679 29.4271 24.3215 32.0313 25.4466 33.6457C26.5718 35.26 29.3428 35.2732 31.6356 33.675C33.3949 32.4488 34.3603 30.6305 34.2065 29.1212H34.2239V15.453V8.25L17.1487 12.6452Z" fill="#5841B6"/>
<path d="M34.2244 8.25V29.1216H34.2066C34.3603 30.6309 33.3956 32.4488 31.6359 33.675C29.3428 35.2734 26.5725 35.2603 25.4466 33.6459C24.3216 32.0316 25.2684 29.4272 27.5606 27.8287C29.0091 26.82 30.6459 26.4544 31.9406 26.7272V16.0406L24 18.0844V10.8816L34.2244 8.25Z" fill="#311C61"/>
</g>
<defs>
<clipPath id="clip0_8311_44478">
<rect width="48" height="48" fill="white"/>
</clipPath>
</defs>
</svg>
