<svg width="48" height="48" viewBox="0 0 48 48" fill="none" xmlns="http://www.w3.org/2000/svg">
<g clip-path="url(#clip0_8320_49084)">
<rect width="48" height="48" rx="24" fill="white"/>
<rect width="48" height="48" rx="6" fill="url(#paint0_linear_8320_49084)"/>
<mask id="mask0_8320_49084" style="mask-type:alpha" maskUnits="userSpaceOnUse" x="0" y="0" width="48" height="48">
<rect width="48" height="48" rx="6" fill="url(#paint1_linear_8320_49084)"/>
</mask>
<g mask="url(#mask0_8320_49084)">
<path d="M51.0001 19.5L24.0001 4.5L20.2501 15.75L25.5001 33L8.25012 45L18.0001 51.75L26.2501 52.5H47.2501L51.7501 46.5L51.0001 19.5Z" fill="#E53D03"/>
</g>
<path d="M15.0028 19.618C15.7679 18.888 16.7107 18.3133 17.7903 17.9652C16.7322 19.4105 16.3581 21.2076 16.7643 22.942C17.1535 24.6038 18.2634 26.0618 19.8093 26.9421L19.8329 26.9556H21.7298L21.7534 26.8916C22.05 26.0887 22.1821 25.2419 22.1461 24.3751C22.0786 22.7482 21.4096 21.2124 20.3001 20.1167C20.952 20.1943 21.586 20.3846 22.1881 20.6838L22.3698 20.774L22.3326 20.5809C21.8676 18.1654 22.164 16.2714 23.2138 14.9515C23.6995 14.3409 24.2857 13.9391 24.8259 13.6747C28.9663 3.32936 21.5615 3 21.5615 3C21.5615 3 23.8175 4.83532 17.839 13.0941C16.11 15.4826 15.2495 17.6885 15.0028 19.618Z" fill="#FFEE00"/>
<path d="M21.9701 4.20766C23.5205 5.56017 24.6177 8.42175 21.9807 14.4706C21.0025 16.7146 20.5892 18.5893 20.5518 20.1534C21.1137 20.2464 21.6607 20.4239 22.1837 20.6838L22.3654 20.774L22.3282 20.5809C21.8631 18.1654 22.1596 16.2714 23.2093 14.9515C23.695 14.3409 24.2813 13.9391 24.8214 13.6747C28.9618 3.32936 21.557 3 21.557 3C21.557 3 21.9268 3.30123 21.9701 4.20766Z" fill="#FFD600"/>
<path d="M31.5118 21.1891C31.5706 22.609 31.1688 23.9295 30.4516 24.9822C30.6673 25.624 30.8154 26.2542 30.8928 26.8699L30.9035 26.9545H34.6614C35.1902 25.9019 35.4692 24.6807 35.4156 23.3881C35.2685 19.8434 32.6738 17.0243 29.493 16.8047C30.6631 17.8537 31.4383 19.417 31.5118 21.1891Z" fill="#FFEE00"/>
<path d="M35.4156 23.3881C35.2685 19.8434 32.6738 17.0243 29.493 16.8047C29.8512 17.1259 30.172 17.4957 30.4474 17.9046C32.1049 19.0801 33.239 21.0799 33.3348 23.3881C33.3885 24.6807 33.1094 25.9019 32.5806 26.9545H34.6614C35.1903 25.9019 35.4693 24.6807 35.4156 23.3881Z" fill="#FFD600"/>
<path d="M23.8371 26.954H31.006C30.833 25.4424 30.2238 23.7172 29.0118 21.8203C24.3083 14.4596 26.4484 13.082 26.4484 13.082C26.4484 13.082 19.5064 13.6298 22.996 23.3157C23.5007 24.7168 23.7602 25.9196 23.8371 26.954Z" fill="#FE9738"/>
<path d="M29.0113 21.8203C24.3078 14.4596 26.4479 13.082 26.4479 13.082C26.4479 13.082 24.6749 13.2228 23.3715 14.6117C23.4004 15.8633 24.0171 18.0613 26.4192 21.8203C27.6313 23.7172 28.2404 25.4424 28.4135 26.954H31.0055C30.8325 25.4425 30.2234 23.7172 29.0113 21.8203Z" fill="#FE860A"/>
<path d="M22.0401 24.3805C22.0781 25.2957 21.9243 26.1695 21.6185 26.9572H25.9492C25.9503 26.832 25.9491 26.7062 25.9439 26.5795C25.7968 23.0348 23.2021 20.2157 20.0214 19.9961C21.1914 21.0451 21.9666 22.6085 22.0401 24.3805Z" fill="#FA9034"/>
<path d="M25.9439 26.5795C25.7968 23.0348 23.2021 20.2157 20.0214 19.9961C20.3892 20.3259 20.7178 20.7066 20.9981 21.1286C22.6312 22.3082 23.7462 24.2921 23.8411 26.5795C23.8463 26.7062 23.8475 26.8319 23.8464 26.9572H25.9492C25.9503 26.8319 25.9491 26.7061 25.9439 26.5795Z" fill="#EA731C"/>
<path d="M13.1887 26.9552H20.0304C18.471 26.1277 17.2759 24.6909 16.8614 22.9205C16.4211 21.0406 16.9225 19.1842 18.0522 17.7852C14.3602 18.8137 12.0509 22.457 12.9454 26.1676C13.0104 26.4376 13.0932 26.6998 13.1887 26.9552Z" fill="#FE9738"/>
<path d="M15.246 19.2666C14.49 20.5478 14.2032 22.094 14.5693 23.6573C14.8795 24.9819 15.6268 26.1196 16.6365 26.9552H20.0278C18.4684 26.1277 17.2733 24.6909 16.8588 22.9205C16.4185 21.0406 16.92 19.1842 18.0496 17.7852C16.9853 18.0817 16.0369 18.5965 15.246 19.2666Z" fill="#FE860A"/>
<path d="M13.972 39.9665L10.644 28.0687C10.3561 27.3828 10.86 26.625 11.6039 26.625H34.6063C35.6315 26.625 36.3546 27.6305 36.0283 28.6023L32.1892 40.0398C31.9841 40.6508 31.4116 41.0625 30.7671 41.0625H15.4166C14.7438 41.0625 14.1533 40.6145 13.972 39.9665Z" fill="#6E3620"/>
<mask id="mask1_8320_49084" style="mask-type:alpha" maskUnits="userSpaceOnUse" x="11" y="26" width="27" height="16">
<path d="M15.2425 39.9665L11.9145 28.0687C11.6267 27.3828 12.1305 26.625 12.8744 26.625H35.8768C36.902 26.625 37.6251 27.6305 37.2988 28.6023L33.4597 40.0398C33.2546 40.6508 32.6821 41.0625 32.0377 41.0625H16.6871C16.0143 41.0625 15.4238 40.6145 15.2425 39.9665Z" fill="#964A2B"/>
</mask>
<g mask="url(#mask1_8320_49084)">
<path d="M33.7415 26.5939L29.5792 39.5065C29.3094 40.3433 29.814 41.2317 30.6709 41.4286L33.4956 42.0777C34.2342 42.2474 34.9833 41.8396 35.2417 41.1272L39.9099 28.2543C40.2215 27.395 39.6986 26.4591 38.8035 26.274L35.473 25.5852C34.7229 25.43 33.9765 25.8649 33.7415 26.5939Z" fill="#964A2B"/>
</g>
<path d="M39.5518 44.9997H8.44841C7.92471 44.9997 7.50012 44.5692 7.50012 44.0381V40.8873C7.50012 40.3563 7.92471 39.9258 8.44841 39.9258H39.5518C40.0755 39.9258 40.5001 40.3563 40.5001 40.8873V44.0381C40.5001 44.5692 40.0755 44.9997 39.5518 44.9997Z" fill="#FBB624"/>
<path d="M39.5518 39.9258H35.7587V42.0446C35.7587 42.5757 35.3341 43.0062 34.8104 43.0062H7.50012V44.0381C7.50012 44.5692 7.92471 44.9997 8.44841 44.9997H39.5518C40.0755 44.9997 40.5001 44.5692 40.5001 44.0381V40.8873C40.5001 40.3562 40.0755 39.9258 39.5518 39.9258Z" fill="#FFD15B"/>
<path d="M27.8077 29.8659V29.8658C27.8077 29.5257 27.5411 29.25 27.2122 29.25H24.2545C23.7851 29.25 23.4045 29.6435 23.4045 30.129V32.5715H21.4964C21.434 32.5715 21.3835 32.5192 21.3835 32.4548V29.8658C21.3835 29.5257 21.1169 29.25 20.788 29.25H20.7879C20.459 29.25 20.1924 29.5257 20.1924 29.8658V32.9242C20.1924 33.4096 20.5729 33.8031 21.0424 33.8031H23.4045V35.7766C23.4045 35.8411 23.354 35.8933 23.2917 35.8933H20.7879C20.459 35.8933 20.1924 36.169 20.1924 36.5091V36.5092C20.1924 36.8493 20.459 37.125 20.7879 37.125H23.7456C24.2151 37.125 24.5957 36.7315 24.5957 36.246V33.8035H26.5038C26.5661 33.8035 26.6166 33.8558 26.6166 33.9202V36.5091C26.6166 36.8493 26.8832 37.125 27.2122 37.125H27.2122C27.5411 37.125 27.8078 36.8493 27.8078 36.5091V33.4508C27.8078 32.9654 27.4272 32.5718 26.9577 32.5718H24.5957V30.5984C24.5957 30.5339 24.6462 30.4817 24.7085 30.4817H27.2122C27.5411 30.4817 27.8077 30.206 27.8077 29.8659Z" fill="#BE7354"/>
</g>
<defs>
<linearGradient id="paint0_linear_8320_49084" x1="28.5" y1="20.25" x2="-2.25" y2="-3.75" gradientUnits="userSpaceOnUse">
<stop stop-color="#ED5803"/>
<stop offset="1" stop-color="#F7941E"/>
</linearGradient>
<linearGradient id="paint1_linear_8320_49084" x1="30" y1="14.25" x2="-5.25" y2="-8.25" gradientUnits="userSpaceOnUse">
<stop stop-color="#CC7007"/>
<stop offset="1" stop-color="#FF9920"/>
</linearGradient>
<clipPath id="clip0_8320_49084">
<rect width="48" height="48" rx="24" fill="white"/>
</clipPath>
</defs>
</svg>
