<svg width="48" height="48" viewBox="0 0 48 48" fill="none" xmlns="http://www.w3.org/2000/svg">
<g clip-path="url(#clip0_8311_44459)">
<rect width="48" height="48" rx="24" fill="#FFCE00"/>
<path d="M26.2501 49.5L9.00012 33L18.7501 28.5L36.0001 12L54.0001 28.5L49.5001 48L26.2501 49.5Z" fill="#FFA300"/>
<path d="M39 14.7031H9V33.0816H20.7568V33.1278L21.4583 34.8608H26.5417L27.2432 33.1278V33.0816H39V14.7031Z" fill="#F1444F"/>
<path d="M24.0001 14.7031V34.8608H26.5419L27.2434 33.1278V33.0816H39.0001V14.7031H24.0001Z" fill="#DB2835"/>
<path d="M23.9998 14.7041C23.7302 13.1436 22.3304 12 20.6903 12H11.4323V30.6487H36.5674V12H27.3093C25.6692 12 24.2694 13.1437 23.9998 14.7041Z" fill="#FFF3DC"/>
<path d="M27.3096 12C25.6695 12 24.2698 13.1436 24.0001 14.7041V30.6487H36.5677V12H27.3096Z" fill="#FFE7BB"/>
<path d="M26.4323 25.7852C25.0888 25.7852 23.9998 26.8742 23.9998 28.2176C23.9998 26.8742 22.9108 25.7852 21.5674 25.7852H11.4323V28.2176V30.65H36.5674V28.2176V25.7852H26.4323Z" fill="#FFD27D"/>
<path d="M26.4326 25.7852C25.0891 25.7852 24.0001 26.8742 24.0001 28.2176V30.65H36.5677V28.2176V25.7852H26.4326Z" fill="#FFC466"/>
<path d="M26.4323 28.2148C25.0888 28.2148 23.9998 29.3038 23.9998 30.6473C23.9998 29.3039 22.9108 28.2148 21.5674 28.2148H11.4323V30.6473H23.9998H36.5674V28.2148H26.4323Z" fill="#FFE7BB"/>
<path d="M26.4326 28.2148C25.0891 28.2148 24.0001 29.3038 24.0001 30.6473H36.5677V28.2148H26.4326Z" fill="#FFD27D"/>
<path d="M13.865 14.8242H21.5677V16.4458H13.865V14.8242Z" fill="#3477A6"/>
<path d="M13.8655 18.0781H21.5682V19.6997H13.8655V18.0781Z" fill="#3477A6"/>
<path d="M13.8655 21.3359H21.5682V22.9576H13.8655V21.3359Z" fill="#3477A6"/>
<path d="M26.4323 14.8242H34.135V16.4458H26.4323V14.8242Z" fill="#185F8D"/>
<path d="M26.4323 18.082H34.135V19.7037H26.4323V18.082Z" fill="#185F8D"/>
<path d="M26.4323 21.3359H34.135V22.9576H26.4323V21.3359Z" fill="#185F8D"/>
<path d="M32.1081 34.8609L30.2838 33.5466L28.4595 34.8609V28.2148H32.1081V34.8609Z" fill="#09A1E8"/>
</g>
<defs>
<clipPath id="clip0_8311_44459">
<rect width="48" height="48" rx="24" fill="white"/>
</clipPath>
</defs>
</svg>
