<svg width="20" height="20" viewBox="0 0 20 20" fill="none" xmlns="http://www.w3.org/2000/svg">
<path fill-rule="evenodd" clip-rule="evenodd" d="M17.1724 14.75H4.75862C4.15172 14.75 3.65517 15.245 3.65517 15.85C3.65517 16.455 4.15172 16.95 4.75862 16.95H17.1724C17.6303 16.95 18 17.3185 18 17.775C18 18.2315 17.6303 18.6 17.1724 18.6H4.75862C3.23586 18.6 2 17.368 2 15.85V3.75C2 2.232 3.23586 1 4.75862 1H17.1724C17.6303 1 18 1.3685 18 1.825V13.925C18 14.3815 17.6303 14.75 17.1724 14.75ZM5.65742 3.74292C5.27872 3.74292 4.97171 4.04992 4.97171 4.42863C4.97171 4.80734 5.27872 5.11435 5.65742 5.11435H15.0289C15.4076 5.11435 15.7146 4.80734 15.7146 4.42863C15.7146 4.04992 15.4076 3.74292 15.0289 3.74292H5.65742ZM4.97171 7.17154C4.97171 6.79283 5.27872 6.48582 5.65742 6.48582H15.0289C15.4076 6.48582 15.7146 6.79283 15.7146 7.17154C15.7146 7.55025 15.4076 7.85725 15.0289 7.85725H5.65742C5.27872 7.85725 4.97171 7.55025 4.97171 7.17154ZM5.65742 9.22852C5.27872 9.22852 4.97171 9.53552 4.97171 9.91423C4.97171 10.2929 5.27872 10.5999 5.65742 10.5999H15.0289C15.4076 10.5999 15.7146 10.2929 15.7146 9.91423C15.7146 9.53552 15.4076 9.22852 15.0289 9.22852H5.65742Z" fill="#F06A16"/>
</svg>
